/* XPM */
static char *result[] = {
/* columns rows colors chars-per-pixel */
"64 64 18 1 ",
"  c black",
". c #261221",
"X c #281222",
"o c #291323",
"O c #391A31",
"+ c #522546",
"@ c #4E3B59",
"# c #575457",
"$ c #7C787C",
"% c #E74845",
"& c #5F4A9F",
"* c #705480",
"= c #A179B8",
"- c #BC92BB",
"; c #B2ACB2",
": c #FD9195",
"> c #FFF7FF",
", c None",
/* pixels */
",,,,,,,,,,,,,,,,,,,,,,,,,,,,,,,,,,,,,,,,,,,,,,,,,,,,,,,,,,,,,,,,",
",,,,,,,,,,,,,,,,,,,,,,,,,,,,,,,,,,,,,,,,,,,,,,,,,,..,,,,,,,,,,,,",
",,,,,,,,,,,,,,,,,,,,,,,,,,,,,,,,,,,,,,,,,,,,,,,,.ooo,,,,,,,,,,,,",
",,,,,,,,,,,,,,,,,,,,,,,,,,,,,,,,,,,,,,,,,,,,,,.o---o,,,,,,,,,,,,",
",,,,,,,,,,,,,,,,,,,,,,,,,,,,,,,,,o,,,,,,,,,,,.----=o ,,,,,,,,,,,",
",,,,,,,,,,,,,,,,,,,,,,,,,,,,,,,,oo,,,,,,,,,,o----==o ,,,,,,,,,,,",
",,,,,,,,,,,,,,,,,,,,,,,,,,,,,,,ooo,,,,o,,,,o----==&o ,,,,,,,,,,,",
",,,,,,,,,,,,,,,,,,,,,,,,,,,,,oo==o,,ooo,,oo----==&&o ,,,,,,,,,,,",
",,,,,oooo,,,,,,,,,oo,,.o,,,,,o===o oo=o,oo----==&&o  ,,,,,,,,,,,",
",,,,,o==ooooo,,,,,o-o,.-oo,ooo===ooo==ooo----===&oo ,,,,,,,,,,,,",
",,,,,oo==---oooo,,o--o.=--oo======o==oo-----===&&o  ,,,,,,,,,,,,",
",,,,,,o==------ooo.=--.==-===========------====&&o ,,,,,,,,,,,,,",
",,,,,,oo===-------.==-.==============------===&&oo ,,,,,,,,,,,,,",
",,,,,,,oo===------.===================---=====&&oo ,,,,,,,,,,,,,",
",,,,,,,,o====-----.====================-=====&&&o  ,,,,,,,,,,,,,",
",,,,,,,,oo=====--===----=====================&&&o ,,,,,,,,,,,,,,",
",,,,,,,,,oo=======-------===================&&&&o ,,,,,,,,,,,,,,",
",,,,,,,,,,oo=====o--------==================&&&oo ,,,,,,,,oo,,,,",
",,,,,,,,,,,oo===oo--------=================&&&&o  ,,,,,,..=o,,,,",
",,,,,,,,,,,,o==oo---------=================&&&&oo ,,,ooo--=oo,,,",
",,.oo,o.,,,,oo=o=--------=================&&&&&&o ,,oo---.==ooo,",
",,o-oo-oo,,,,oo====----===================&&&&&&ooooo---.-.===o,",
",,o-----oooo,oo=====================+=====&&&&&&====------.==oo ",
",,,o-------ooo=================-==++======&&&&&&=====---====oo  ",
",,,o--======oo=+=============---=+%%&=====&&&&&&&===-======oo  ,",
",,o=========&===+============--=+%%%&=====&&&&&&&==========o  ,,",
",o=========&&==&%+==========--=+::%%&=====&&&&&&&&=======&&o ,,,",
",o========&&&==&%+==========--=.:::%&======&&&&&&&&====&&&oo ,,,",
",,o======&&&&==&%%+=========--..:::%&======&&&&&&&&&&&&&ooo ,,,,",
",,oo====&&&&&==&%%:.+========&:.:::&=======&&&&&&&&&&&&oo  ,,,,,",
",,,,oo=&&&&&&===&%:.:+=======&::::&=========&&&&&&&&&ooo  ,,,,,,",
",,,,,oooo&&&o===&%:::+========&%%%===+======&&&&&&&&oo  ,,,,,,,,",
",,,,,,,,oo&&o=====%%+===============+>O=====&&&&&&&ooo ,,,,,,,,,",
",,,,,,,,,oo&o=====================+>>>X=====&&&&&&&&&o ,,,,,,,,,",
",,,,,,,,,,ooo==+================++>>>>X=====&&&&&&&&&o ,,,,,,,,,",
",,,,,,,,,,,,o==>++===========++++$>>>O@=====&&&&&&&&&o ,,,,,,,,,",
",,,,,,,,,,,,o===>+++++++++++++>>>$>>>X*====&&&&&&&&&&o ,,,,,,,,,",
",,,,,,,,,,,,o===>>$>>>$>>>>>$>>>>;$>X@=====&&&&&&&&&&oo,,,,,,,,,",
",,,,,,,,,,,,,o===>$>>>$>>>>>$>>>>>$$@======&&&&&&&&&&&o ,,,,,,,,",
",,,,,,,,,,,,,o===>;$>>;;>>>>$$>>>>#X======&&&&&&&&&&&&o ,,,,,,,,",
",,,,,,,,,,,,,oo===>$>>>$>>>>>$>>>OX=======&&&&&&&&&&&oo ,,,,,,,,",
",,,,,,,,,,,,,,o===+$>>>$>>>>>$>>+O@======&&&&&&&&&&&oo  ,,,,,,,,",
",,,,,,,,,,,,,,o====O+>>$>>>>+++++========&&&&&&&&&&&o&oooo,,,,,,",
",,,,,,,,,,,,,,oo====+++++++++===========&&&&&&&&&&&oo&&&&oo,,,,,",
",,,,,,,,,,,,,,,o========================&&&&&&&&&&&o&&&&&&&o,,,,",
",,,,,,,,,,,,,,,oo=====================&&&&&&&&&&&&&&&&&&&&&&.,,,",
",,,,,,,,,,,,,,,,o===================&&&&&&&&&&&&&&&&&&&&&&o..,,,",
",,,,,,,,,,,,,,,,oo================&&&&&&&&&&&&&&&&&&&&&&ooo  ,,,",
",,,,,,,,,,,,,,,,oo&&==========&&&&&&&&&&&&&&&&&&oo&&&&&oo  ,,,,,",
",,,,,,,,,,,,,,,oo&&&&&&&=&&&&&&&&&&&&&&&&&&&=====oo&&&oo  ,,,,,,",
",,,,,,,,,,,,,,,o&&&&&o&&&&&&&&&&&&&&&&&&&&========ooooo  ,,,,,,,",
",,,,,,,,,,,,,,,o&&&&&ooo&&&&&&&&&&&&&&&&======--===o  ,,,,,,,,,,",
",,,,,,,,,,,,,,,o&&&&&&&oooo&&&&&&&&&&&&======---===oo ,,,,,,,,,,",
",,,,,,,,,,,,,,,o&&&&&&&&&&ooo&&&&&ooo&========---===o ,,,,,,,,,,",
",,,,,,,,,,,,,,,,o==&&&&&&&&o oooooo  oo=======---==oo ,,,,,,,,,,",
",,,,,,,,,,,,,,,,o======&&&oo ,,,,,,,,,oo========-==o  ,,,,,,,,,,",
",,,,,,,,,,,,,,,,o=======ooo  ,,,,,,,,,,oo==========o ,,,,,,,,,,,",
",,,,,,,,,,,,,,,,oo====ooo  ,,,,,,,,,,,,,oo=========o ,,,,,,,,,,,",
",,,,,,,,,,,,,,,,,oooooo  ,,,,,,,,,,,,,,,,oo=======oo ,,,,,,,,,,,",
",,,,,,,,,,,,,,,,,,,,,,,,,,,,,,,,,,,,,,,,,,o=======o  ,,,,,,,,,,,",
",,,,,,,,,,,,,,,,,,,,,,,,,,,,,,,,,,,,,,,,,,oo======o ,,,,,,,,,,,,",
",,,,,,,,,,,,,,,,,,,,,,,,,,,,,,,,,,,,,,,,,,,ooo===oo ,,,,,,,,,,,,",
",,,,,,,,,,,,,,,,,,,,,,,,,,,,,,,,,,,,,,,,,,,,,ooooo ,,,,,,,,,,,,,",
",,,,,,,,,,,,,,,,,,,,,,,,,,,,,,,,,,,,,,,,,,,,,,,,,,,,,,,,,,,,,,,,"
};
