/* XPM */
static char *result[] = {
/* columns rows colors chars-per-pixel */
"64 64 7 1 ",
"  c #385810",
". c #399031",
"X c #18A068",
"o c #40B088",
"O c #70C89F",
"+ c #A0E0C0",
"@ c None",
/* pixels */
"@@@@@@@@@@@@@@@@@@@@@@@@@@@@@@@@    @@@@@@@@@@@@@@@@@@@@@@@@@@@@",
"@@@@@@@@@@@@@@@@@@@@@@@@@@@@@@@@    @@@@@@@@@@@@@@@@@@@@@@@@@@@@",
"@@@@@@@@@@@@@@@@@@@@@@@@@@@@@@@@    @@@@@@@@@@@@@@@@@@@@@@@@@@@@",
"@@@@@@@@@@@@@@@@@@@@@@@@@@@@@@@@    @@@@@@@@@@@@@@@@@@@@@@@@@@@@",
"@@@@@@@@@@@@@@@@@@@@@@@@@@@@    ++++    @@@@@@@@@@@@@@@@@@@@@@@@",
"@@@@@@@@@@@@@@@@@@@@@@@@@@@@    ++++    @@@@@@@@@@@@@@@@@@@@@@@@",
"@@@@@@@@@@@@@@@@@@@@@@@@@@@@    ++++    @@@@@@@@@@@@@@@@@@@@@@@@",
"@@@@@@@@@@@@@@@@@@@@@@@@@@@@    ++++    @@@@@@@@@@@@@@@@@@@@@@@@",
"@@@@@@@@            @@@@@@@@    ++++    @@@@            @@@@@@@@",
"@@@@@@@@            @@@@@@@@    ++++    @@@@            @@@@@@@@",
"@@@@@@@@            @@@@@@@@    ++++    @@@@            @@@@@@@@",
"@@@@@@@@            @@@@@@@@    ++++    @@@@            @@@@@@@@",
"@@@@    ++++++++++++        ++++OOOO....    ++++++++++++    @@@@",
"@@@@    ++++++++++++        ++++OOOO....    ++++++++++++    @@@@",
"@@@@    ++++++++++++        ++++OOOO....    ++++++++++++    @@@@",
"@@@@    ++++++++++++        ++++OOOO....    ++++++++++++    @@@@",
"@@@@@@@@    ++++OOOOOOOO....OOOOOOOO    ooooOOOO++++        @@@@",
"@@@@@@@@    ++++OOOOOOOO....OOOOOOOO    ooooOOOO++++    @@@@@@@@",
"@@@@@@@@    ++++OOOOOOOO....OOOOOOOO    ooooOOOO++++    @@@@@@@@",
"@@@@@@@@    ++++OOOOOOOO....OOOOOOOO    ooooOOOO++++    @@@@@@@@",
"@@@@@@@@@@@@    OOOOOOOOOOOO....oooo    oooooooo....    @@@@@@@@",
"@@@@@@@@@@@@    OOOOOOOOOOOO....oooo    oooooooo....    @@@@@@@@",
"@@@@@@@@@@@@    OOOOOOOOOOOO....oooo    oooooooo....    @@@@@@@@",
"@@@@@@@@@@@@    OOOOOOOOOOOO....oooo    oooooooo....    @@@@@@@@",
"@@@@                    OOOO............oooo                @@@@",
"@@@@                    OOOO............oooo                @@@@",
"@@@@                    OOOO............oooo                @@@@",
"@@@@                    OOOO............oooo                @@@@",
"    ++++++++++++OOOO        OOOO    oooo    XXXXOOOOOOOOOOOO    ",
"    ++++++++++++OOOO        OOOO    oooo    XXXXOOOOOOOOOOOO    ",
"    ++++++++++++OOOO        OOOO    oooo    XXXXOOOOOOOOOOOO    ",
"    ++++++++++++OOOO        OOOO    oooo    XXXXOOOOOOOOOOOO    ",
"@@@@    ++++OOOOOOOOoooo                XXXXXXXXXXXXXXXX    @@@@",
"@@@@    ++++OOOOOOOOoooo                XXXXXXXXXXXXXXXX    @@@@",
"@@@@    ++++OOOOOOOOoooo                XXXXXXXXXXXXXXXX    @@@@",
"@@@@    ++++OOOOOOOOoooo                XXXXXXXXXXXXXXXX    @@@@",
"@@@@@@@@    oooooooooooooooo        ............        @@@@@@@@",
"@@@@@@@@    oooooooooooooooo        ............        @@@@@@@@",
"@@@@@@@@    oooooooooooooooo        ............        @@@@@@@@",
"@@@@@@@@    oooooooooooooooo        ............        @@@@@@@@",
"@@@@@@@@@@@@                                        @@@@@@@@@@@@",
"@@@@@@@@@@@@                                        @@@@@@@@@@@@",
"@@@@@@@@@@@@                                        @@@@@@@@@@@@",
"@@@@@@@@@@@@                                        @@@@@@@@@@@@",
"@@@@@@@@@@@@    OOOOoooo    ....        ....oooooooo    @@@@@@@@",
"@@@@@@@@@@@@    OOOOoooo    ....        ....oooooooo    @@@@@@@@",
"@@@@@@@@@@@@    OOOOoooo    ....        ....oooooooo    @@@@@@@@",
"@@@@@@@@@@@@    OOOOoooo    ....        ....oooooooo    @@@@@@@@",
"@@@@@@@@    OOOOoooo.................   ............XXXX    @@@@",
"@@@@@@@@    OOOOoooo.................   ............XXXX    @@@@",
"@@@@@@@@    OOOOoooo.................   ............XXXX    @@@@",
"@@@@@@@@    OOOOoooo.................   ............XXXX    @@@@",
"@@@@@@@@@@@@            oooooooooooo....                    @@@@",
"@@@@@@@@@@@@            oooooooooooo....                    @@@@",
"@@@@@@@@@@@@            oooooooooooo....                    @@@@",
"@@@@@@@@@@@@            oooooooooooo....                    @@@@",
"@@@@@@@@@@@@@@@@@@@@@@@@    oooo....    @@@@@@@@@@@@@@@@@@@@@@@@",
"@@@@@@@@@@@@@@@@@@@@@@@@    oooo....    @@@@@@@@@@@@@@@@@@@@@@@@",
"@@@@@@@@@@@@@@@@@@@@@@@@    oooo....    @@@@@@@@@@@@@@@@@@@@@@@@",
"@@@@@@@@@@@@@@@@@@@@@@@@    oooo....    @@@@@@@@@@@@@@@@@@@@@@@@",
"@@@@@@@@@@@@@@@@@@@@@@@@@@@@        @@@@@@@@@@@@@@@@@@@@@@@@@@@@",
"@@@@@@@@@@@@@@@@@@@@@@@@@@@@        @@@@@@@@@@@@@@@@@@@@@@@@@@@@",
"@@@@@@@@@@@@@@@@@@@@@@@@@@@@        @@@@@@@@@@@@@@@@@@@@@@@@@@@@",
"@@@@@@@@@@@@@@@@@@@@@@@@@@@@        @@@@@@@@@@@@@@@@@@@@@@@@@@@@"
};
