/* XPM */
static char *result[] = {
/* columns rows colors chars-per-pixel */
"64 64 24 1 ",
"  c black",
". c #343434",
"X c #5E3618",
"o c #57501B",
"O c #69601F",
"+ c #7D7226",
"@ c #874D23",
"# c #E64425",
"$ c #C26E32",
"% c #FC7229",
"& c #EE534F",
"* c #92862B",
"= c #B2A42A",
"- c #B3A436",
"; c #F2D216",
": c #D4C133",
"> c #D1C03D",
", c #FFEB3B",
"< c #FFEB3C",
"1 c #908949",
"2 c #DECC41",
"3 c #E9D843",
"4 c white",
"5 c None",
/* pixels */
"5555555555555555555555555555555555555555555555555555555555555555",
"5555555555555555555555555555555555555555555555555555555555555555",
"5555555555555555555555555555555555555555555555555555555555555555",
"555555555555555555555555555555555555555555   5555555555555555555",
"55555555555555555555555555555555555555555    5555555555555555555",
"555555555555555555555555555555555555555       555555555555555555",
"555  555555555555555555555555555555555<       555555555555555555",
"55    <55555555555555555555555555555<<        555555555555555555",
"55   <<<5555555555555555555555555<<<<<        55555555555555<<55",
"555  <<<<<5555555555555555555555<<<<<<       5555555555555<<<<<5",
"555  <<<<<<555555555555555555<<<<<<<<<      555555555555<<<<<<< ",
"5555 <<<;<<<555555555555555<<<<<<<<<<      55555555555<<<<<<<<< ",
"55555 <<;;<<<55555<<<<<<<5<<<<<<<<<<<    5555555555<<<<<<<<<<<  ",
"55555 -<<%<<<<<<<<<<<<<<<<<<<<<<<<<--   5555555555<<<<<<<<<<<< 5",
"5555555-<<<<<<<<<<<<<<<<<<<<<<<<<<--   5555555555<<<<<<<<<<<<2 5",
"5555555-<<<<<<<<<<<<<<<<<<<;%<<<<--  5555555555<<<<<<<<<<<<<-  5",
"55555555-<<<<<<<<<<<<<<<<<<<%<<<<-  555555555<<<<<<<<<<<<<<-- 55",
"5555555-<<<<<<<;<<<<<<<<<<<<%%<<<- 555555555<<<<<<<<<<<<<<<-  55",
"555555--<<<<<<;%;<<<<<<<<<<<<<<<<< 5555555<<<<<<<<<<<<<<<--- 555",
"555555-<<<<<<<<;<<<<<<<<<<<<<<<<<< 55555<<<<<<<<<<<<<<----  5555",
"55555-<<<<<<<<<<<<<<<<<<<<<<<<<<<<<555<<<<<<<<<<<<<<---    55555",
"5555-<<   <<<<<<<<<<<   <<<<<<<<<<<<55<<<<<<<<<<<----   55555555",
"5555<< 4  <<<<<<<<<< 4   <<<<<<<<<<<<55<<<<<<<<<--    5555555555",
"5555<<   1<<<<<<<<<<     1<<<<<<<<<<<<55<<<<<<<<-  5555555555555",
"5555<<   1<<<<<<<<<1     1<<<<<<<<<<<< 55<<<<<<<  55555555555555",
"5555<< .11<<<<<<<<<<1   11<<<<<<<;<<<<<555<<<<<<< 55555555555555",
"555&&<111<<<<<<<<<<<11111<<<<<<<%%;<<<< 555<<<<<<<55555555555555",
"555&&&1<<<<<    <<<<<111<<&&&<<<%;<<<<<<5555 <<<<<<5555555555555",
"555&&<<<<<<<<  <<<<<<<<<<&&&&&<<<<<<<<<< 55555<<<<<<<55555555555",
"555:&<<<<<<<<<<<<<<<<<<<<<&&&<<<<<<<<<<$$555555<<<<<-55555555555",
"555:<<<<  <<<   <<<< <<<<<<&<<<<<<<<<<$$$ 5555<<<<<-- 5555555555",
"5555:<<<<<   <<<    <<<<<<<<<<<<<<<<<<$$$ 555<<<<<--  5555555555",
"5555><<<<<<<<<<<,<<<<<<<<<<<<<<<<<<<<<$$#<5<<<<<<--  55555555555",
"5555O*=<<<<<<<<,,,%,<<<<<<<<<<<<<<<<<$$#%<<<<<<<<-  555555555555",
"55555O**<<<<<<<<<,,<<<<<<<<<<<<<<<<<<$#%<<<<<<<<-- 5555555555555",
"555555 O**===<<<<<<<<<<<<<<<<<<<<<<<##%<<$ <<<<--$ 5555555555555",
"5555555<<<<<<<<<<<<<<+<<<<<<<<<<<<<<#<<<<$  <<<$$$$5555555555555",
"555555<<<<<<<<<<<<<<+=<<<<<+<<<<<<<<<<<<$$$ 5<$$$$$$555555555555",
"55555<<<<<<<<<<<<<<-+<<<<<++<<<<<<<<<<<$$$$ 55$$$$$$$55555555555",
"5555<<<<<<<<<<<<<<<+=<<<<++<<<<<<<<<<<$$$$$ 55$$$$$$$$5555555555",
"555<<<<<<<+<<<<<<<++<<<<=+<<<<<<<<<<<$$$$#% 5$$$$$$$@@@555555555",
"555<<%%<<++<<<<<<<+<<<<<+<<<<-+<<<<<<$$$#%< $$$$$$@@@  555555555",
"555<<%<<++<<<<<<<<+-<<<++<<-++=<<<<<$$#%%<<$$$$$@@@   5555555555",
"555<<<< +<<<<<<<<<=++++=<<<+=<<<<<<$##%<<<<$$$$@@   555555555555",
"5555<<  <<<<<<<<<<<<<<<<<<+=<<<<<<<##<<<<<<$$$    55555555555555",
"55555555<<<<<<<<<<<<<<<<<++<<<<<<<<<<<<<<<<$$$$ 5555555555555555",
"55555555<<<<<<<<<<<<<<<<<+<<<<<<<<<<<<<<<<<$$$$$$555555555555555",
"55555555<<<<<<<<<<<<<<<<<+<<<<<<<<<<<<<<<<@@@XXX@555555555555555",
"5555555555<<<<<<<<<<<<<<<+<<<<<<<<<<<<<<<<       555555555555555",
"5555555555+-<<<<<<<<<<<<<+<<<<<<<<<<<<<<--  55555555555555555555",
"55555555555++3<<<<<<<<<<<+<<<<<<<<<<<<<--  555555555555555555555",
"5555555555<<+++<<<<<<<<<<+<<<<<<<<<<<<-+  5555555555555555555555",
"555555555<<<<<<<<<<<<<<<<--<<<<<<<<<---   5555555555555555555555",
"5555555<<<<<<<<<<<<<<<------<<<<<<<-+    55555555555555555555555",
"55555 =<<<<<<<---------    =<<<<<--+    555555555555555555555555",
"5555  =<<<<<---           <<<<<<-+     5555555555555555555555555",
"5555  +-<----            ------++    555555555555555555555555555",
"55555  o+o     555555     +o +o     5555555555555555555555555555",
"555555       55555555555         5555555555555555555555555555555",
"5555555555555555555555555555555555555555555555555555555555555555",
"5555555555555555555555555555555555555555555555555555555555555555",
"5555555555555555555555555555555555555555555555555555555555555555",
"5555555555555555555555555555555555555555555555555555555555555555",
"5555555555555555555555555555555555555555555555555555555555555555"
};
