/* XPM */
static char *result[] = {
/* columns rows colors chars-per-pixel */
"64 64 32 1 ",
"  c black",
". c #343434",
"X c #422611",
"o c #5E3618",
"O c #575014",
"+ c #57501B",
"@ c #665E1E",
"# c #69601F",
"$ c #7C721D",
"% c #7D7226",
"& c #D13920",
"* c #874D23",
"= c #E64425",
"- c #E05822",
"; c #C26E32",
": c #FC7229",
"> c #EE534F",
", c #948724",
"< c #92862B",
"1 c #9B8E2D",
"2 c #B2A42A",
"3 c #B3A436",
"4 c #D6B80F",
"5 c #F2D216",
"6 c #D4C133",
"7 c #FFEB3B",
"8 c #FFEB3C",
"9 c #908949",
"0 c #DECC41",
"q c #E9D843",
"w c white",
"e c None",
/* pixels */
"eeeeeeeeeeeeeeeeeeeeeeeeeeeeeeeeeeeeeeeeeeeeeeeeeeeeeeeeeeeeeeee",
"eeeeeeeeeeeeeeeeeeeeeeeeeeeeeeeeeeeeeeeeeeeeeeeeeeeeeeeeeeeeeeee",
"eeeeeeeeeeeeeeeeeeeeeeeeeeeeeeeeeeeeeeeeeeeeeeeeeeeeeeeeeeeeeeee",
"eeeeeeeeeeeeeeeeeeeeeeeeeeeeeeeeeeeeeeeeee   eeeeeeeeeeeeeeeeeee",
"eeeeeeeeeeeeeeeeeeeeeeeeeeeeeeeeeeeeeeeee    eeeeeeeeeeeeeeeeeee",
"eeeeeeeeeeeeeeeeeeeeeeeeeeeeeeeeeeeeeee      eeeeeeeeeeeeeeeeeee",
"eee  eeeeeeeeeeeeeeeeeeeeeeeeeeeeeeeee8      eeeeeeeeeeeeeeeeeee",
"ee    8eeeeeeeeeeeeeeeeeeeeeeeeeeeee88      eeeeeeeeeeeeeeeeeeee",
"ee   888eeeeeeeeeeeeeeeeeeeeeeeee88888      eeeeeeeeeeeeeeee88ee",
"eee  88888eeeeeeeeeeeeeeeeeeeeee888888     eeeeeeeeeeeeeee88888e",
"eee  888888eeeeeeeeeeeeeeeeee888888888    eeeeeeeeeeeeee8888888e",
"eeee 8885888eeeeeeeeeeeeeee8888888888   eeeeeeeeeeeeee888888888e",
"eeeee 8855888eeeee8888888e88888888888  eeeeeeeeeeee88888888888ee",
"eeeeee388:888888888888888888888888833 eeeeeeeeeeee888888888888ee",
"eeeeeee38888888888888888888888888833eeeeeeeeeeeee8888888888881ee",
"eeeeeeee88888888888888888885:888833eeeeeeeeeeee8888888888888%eee",
"eeeeeeee38888888888888888888:8888%eeeeeeeeeee88888888888888%%eee",
"eeeeeee388888885888888888888::888%eeeeeeeeee888888888888888%eeee",
"eeeeee338888885:488888888888888882eeeeeeee888888888888888%%%eeee",
"eeeeee3888888884888888888888888882eeeeee88888888888888%%%%eeeeee",
"eeeee388888888888888888888888888822eee22888888888888%%%eeeeeeeee",
"eeee388   88888888888   888888888222ee22288888888%%%%eeeeeeeeeee",
"eeee88    8888888888     888888888222ee222888888%%eeeeeeeeeeeeee",
"eeee88  w98888888888  w  9888888882222ee22288888%eeeeeeeeeeeeeee",
"eeee88   98888888889     9888888888222eee2228888eeeeeeeeeeeeeeee",
"eeee88 .9988888888889   998888888588222eee2228888eeeeeeeeeeeeeee",
"eee>>899928888888888999998888888::58222eeee2222888eeeeeeeeeeeeee",
"eee>>>988888    8888899988>>>888:5888222eeeee222888eeeeeeeeeeeee",
"eee>>88888888  8888888888>>>>>8888888222eeeeee2288888eeeeeeeeeee",
"eee6>888888888888888888888>>>8888888822**eeeeee28888%eeeeeeeeeee",
"eee,2888  888   8888 888888>8888888882***eeeee$2888%%eeeeeeeeeee",
"eeee,88888   888    888888888888888882***eeee2$288%%eeeeeeeeeeee",
"eeee<28888888888788888888888888888888;**&2 22$$88%%eeeeeeeeeeeee",
"eeee#@$28888888777:788888888888888888;*&-2$2$$288%eeeeeeeeeeeeee",
"eeeee#<@2288888887788888888888888888;;&-22$2$228%%eeeeeeeeeeeeee",
"eeeeeee#<<2228888888888888888888888;==-22*e2222%%;eeeeeeeeeeeeee",
"eeeeeee08888888888888%8888888888888;=2222*ee222;;;;eeeeeeeeeeeee",
"eeeeee08888888888888%888888%888888888222***ee2**;;;;eeeeeeeeeeee",
"eeeee088888888888888%88888%%88888888822****eee**;;;;;eeeeeeeeeee",
"eeee088888888888888%88888%%88888888882*****eee**;;;;;;eeeeeeeeee",
"eee0888888+8888888%%88888%88888888888****&-ee***;;;;oooeeeeeeeee",
"eee08::80++8888888%88888%88888%888882***&-2e****;;oooeeeeeeeeeee",
"eee08:80++88888888%8888%%888%%888888**&--22*****oooeeeeeeeeeeeee",
"eee0880e+8888888888%%%%8888%8888888;&&-2222****oXeeeeeeeeeeeeeee",
"eeee00ee888888888888888888%88888888=&222222*** eeeeeeeeeeeeeeeee",
"eeeeeeee88888888888888888%%8888888822222222****eeeeeeeeeeeeeeeee",
"eeeeeeee88888888888888888%88888888822222222*****;eeeeeeeeeeeeeee",
"eeeeeeeee8888888888888888%8888888822222222o**ooo*eeeeeeeeeeeeeee",
"eeeeeeeeee888888888888888%8888888822222222e eeeeeeeeeeeeeeeeeeee",
"eeeeeeeeee%38888888888888%8888888222222223  eeeeeeeeeeeeeeeeeeee",
"eeeeeeeeeee%%q88888888888%888888222222233  eeeeeeeeeeeeeeeeeeeee",
"eeeeeeeeee88%%%8888888888%8888822222223%  eeeeeeeeeeeeeeeeeeeeee",
"eeeeeeeee888888888888888838888222222333   eeeeeeeeeeeeeeeeeeeeee",
"eeeeeee88888888888888833333822222223%    eeeeeeeeeeeeeeeeeeeeeee",
"eeeeee28888888333333333    22222223%    eeeeeeeeeeeeeeeeeeeeeeee",
"eeeeee288888333           2222223%e   eeeeeeeeeeeeeeeeeeeeeeeeee",
"eeeeeee383333   eeeeeeee 22222222    eeeeeeeeeeeeeeeeeeeeeeeeeee",
"eeeeeeee%+    eeeeeeeeee$$22222$  eeeeeeeeeeeeeeeeeeeeeeeeeeeeee",
"eeeeeeeeeeeeeeeeeeeeeeee$OO2$O  eeeeeeeeeeeeeeeeeeeeeeeeeeeeeeee",
"eeeeeeeeeeeeeeeeeeeeeeeee$OOO eeeeeeeeeeeeeeeeeeeeeeeeeeeeeeeeee",
"eeeeeeeeeeeeeeeeeeeeeeeeeeeeeeeeeeeeeeeeeeeeeeeeeeeeeeeeeeeeeeee",
"eeeeeeeeeeeeeeeeeeeeeeeeeeeeeeeeeeeeeeeeeeeeeeeeeeeeeeeeeeeeeeee",
"eeeeeeeeeeeeeeeeeeeeeeeeeeeeeeeeeeeeeeeeeeeeeeeeeeeeeeeeeeeeeeee",
"eeeeeeeeeeeeeeeeeeeeeeeeeeeeeeeeeeeeeeeeeeeeeeeeeeeeeeeeeeeeeeee"
};
