/* XPM */
static char *result[] = {
/* columns rows colors chars-per-pixel */
"64 64 18 1 ",
"  c #55B691",
". c #59B793",
"X c #5FBC95",
"o c #64BE99",
"O c #69C29D",
"+ c #6DC59E",
"@ c #6FC4A1",
"# c #73C6A1",
"$ c #72C7A1",
"% c #73C7A1",
"& c #72C8A1",
"* c #74C8A2",
"= c #7ACBA6",
"- c #88D1B0",
"; c #89D1B0",
": c #8FD5B5",
"> c #90D5B5",
", c #9EDCBD",
/* pixels */
"%%%%%%%%%%%%%%%%%%%%%%%%%%%%+%%%%%%%%%%%%%%%%%%%%%%%%%%%%%% =%%%",
"%%%%%+%%%%%%%%%%%%%%%%%%%%%% %=%%%%%%%%%%+=%%%%%%%%%%%%%%%XX,%%%",
"%%%%% =%%%%%%%%%%%%%%%%%%%%XX%,%%%%%%%%%% ,%%%%%%%%%%%%%%% >>%%%",
"%%%%XX,%%%%%%%%%%%%%%%%%%%% %>>%%%%%%%%%XO>%%%%%%%%%%%%%%%o,%%%%",
"%%%% >>%%%%%%%%%+%%%%%%%%%%o%,%%%%%%%%%% ,%%%%%%%%%%%%%%%%%;%%%%",
"%%%%o,%%%%%%%%%% =%%%%%%%%%%%;%%%%%%%%%%o;%%%%%%%%%%%%%%%%%%%%%%",
"%%%%%;%%%%%%%%%XX,%%%%%%%%%%%%%%%%%%%%%%%%%%%%%%%%%%%%%%%%%%%%%%",
"%%%%%%%+%%%%%%% >>%%%%%%%%%%%%%%%%%%%%%%%%%%%%%%%%+%%%%%%%%%%%%%",
"%%%%%%% =%%%%%%o,%%%%%%%%%%%%%%%%%%%%%%%%%%%%%%%%% =%%%%%%%%%%%%",
"%%%%%%XX,%%%%%%%;%%%%%%%%%%%%%%%%%%%%%%%%%%%%%%%%XX,%%%&%%%%%%%%",
"%%%%%% >>%%%%%%%%%%%%%%%%%%%%%%%%%%%%%%%%+%%%%%%% >>%%&#%%%%%%%%",
"%%%%%%o,%%%%%%%%%%%%%%%%%%%%%%%%%%%%%%%%% =%%%%%%o,%%&#%%%%%%%%%",
"%%%%%%%;%%%%%%%%%%%%%%%%%%%%%%%%%%%%%%%%XX,%%%%%%%;%&#%$%%%%%%%%",
"%%%%%%%%%%%%%%%%%%%%%%%%+%%%%%%%%%%%%%%% >>%%%%%%%%*#%$$%%%%%%%%",
"%%%%%%%%%%%%%%%%%%%%%%%% %=%%%%%%%%%%%%%o,%%%%%%%%%.=$$%%%%%%%%%",
"%%%%%%%%%%%%%%%+=%%%%%%XX%,%%%%%%%%%%%%%%;%%%%%%%%OO,$$#%%%%%%%%",
"%%%%%%%%%%%%%%% ,%%%%%% %>>%%%%%%%%%%%%%%%%%%%%%%%.>:$%&%%%%%%%%",
"%%%%%%%%%%%%%%XO>%%%%%%o%,%%%%%%%%%%%%%%%%%%%%%%%%@,$$#%%%%%%%%%",
"%%%%%%%%+%%%%% ,%%%%%%%%%;%%%%%%%%+%%%%%%%%%%%%%%%#-$%&%%%%%%%%%",
"%%%%%%%% =%%%%o;%%%%%%%%%%%%%%%%%% %=%%%%%%%%%%%%%$$%#%%%%%%%%%%",
"%%%%%%%XX,%%%%%%%%%%%%%%%%%%%%%%%XX%,%%%%%%%%%%%%%%$#&%%%%%%%%%%",
"%%%%%%% >>%%%%%%%%%%%%%%%%%%%%%%% %>>%%%%%%%%%%%%%%%&%%%+%%%%%%%",
"%%%%%%%o,%%%%%%%%%%%%%%%%%%%%%%%%o%,%%%%%%%%%%%%%%%#%%%% =%%%%%%",
"%%%%%%%%;%%%%%%%%%%%%%%%%%%%%%%%%%%;%%%%%%%%%%%%%%#&%%%XX,%%%%%%",
"%%%%%%%%%%%%%%%%%%%%%%%%%%%%%%%%%%%%%%%%%%%%%%%%%%%%%%% >>%%%%%%",
"%%%%%%%%%%%%%%%%%%%%%%%%%%%%%%%%%%%%%%%%%%%%%%%%%%%%%%%o,%%%%%%%",
"%%%%%%%%%%%%%%%%%%%%%%%%%%%%%%%%%%%%%%%%%%%%%%%%%%%%%%%%;%%%%%%%",
"%%%%%%%%%%%%%%%%+=%%%%%%%%%%%%%%%%%%%%%%%%%%%%%%%%%%%%%%%%%%%%%%",
"%%%%%%%%%%%%%%%% ,%%%%%%%%%%%%%%%%%%%%%%%%%%%%%%%%%%%%%%%%%%%%%%",
"%%%%%%%%%%%%%%%XO>%%%%%%%%%%%%%%%%%%+%%%%%%%%%%%%%%%%%%%%%%%%%%%",
"%%%%+=%%%%%%%%% ,%%%%%%%%%%%%%%%%%%% %=%%%%%%%%%%%%%%%%%%%%%%%%%",
"%%%% ,%%%%%%%%%o;%%%%%%%%%+%%%%%%%%XX%,%%%%%%%%%%%%%%%%%%%%%%%%%",
"%%%XO>%%%%%%%%%%%%%%%%%%%% =%%%%%%% %>>%%%%%%%%%%+%%%%%%%%%%%%%%",
"%%% ,%%%%%%%%%%%%%%%%%%%%XX,%%%%%%%o%,%%%%%%%%%%% %=%%%%%%%%%%%%",
"%%%o;%%%%%%%%%%%%%%%%%%%% >>%%%%%%%%%;%%%%%%%%%%XX%,%%%%%%%%%%%%",
"%%%%%%%%%%%%%%%%%%%%%%%%%o,%%%%%%%%%%%%%%%%%%%%% %>>%%%%%%%%%%%%",
"%%%%%%%%%%%%%%%%%%%%%%%%%%;%%%%%%%%%%%%%%%%%%%%%o%,%%%%%%%%%%%%%",
"%%%%%%%%+%%%%%%%%%%%%%%%%%%%%%%%%%%%%%%%%%%%%%%%%%;%%%%%%%%%%%%%",
"%%%%%%%% =%%%%%%%%%%%%%%%%%%%%%%%%%%%%%%%%%%%%%%%%%%%%%%%%%%%%%%",
"%%%%%%%XX,%%%%%%%%%%%%%%%%%%%%%%%%%%%%%%%%%%%%%%%%%%%%%%%%%%%%%%",
"%%%%%%% >>%%%%%%%%%%%%%%%%%%%%%%%%%+=%%%%%%%%%%%%%%%%%%%%%%%%%%%",
"%%%%%%%o,%%%%%%%%%%%%%%%%%%%%%%%%%% ,%%%%%%%%%%%%%%%%%%%%%%%%%%%",
"%%%%%%%%;%%%%%%%%%%%%%%%%%%%%%%%%%XO>%%%%%%%%%%%%%%%%%%%+%%%%%%%",
"%%%%%%%%%%%%%%%%%%%%%%%%%%%%%%%%%% ,%%%%%%%%%%%%%%%%%%%% %=%%%%%",
"%%%%%%%%%%%%+%%%%%%%+%%%%%%%%%%%%%o;%%%%%%%%%%%%%%%%%%%XX%,%%%%%",
"%%%%%%%%%%%% =%%%%%% %=%%%%%%%%%%%%%%%%%%%%%%%%%%%%%%%% %>>%%%%%",
"%%%%%+%%%%%XX,%%%%%XX%,%%%%%%%%%%%%%%%%%%%%%%%%%%%%%%%%o%,%%%%%%",
"%%%%% =%%%% >>%%%%% %>>%%%%%%%%%%%%%%%%%%%%%%%%%%%%%%%%%%;%%%%%%",
"%%%%XX,%%%%o,%%%%%%o%,%%%%%%%%%%%%%%%%%%%%%%%%%%%%%%%%%%%%%%%%%%",
"%%%% >>%%%%%;%%%%%%%%;%%%%%%%%%%%%%%%%%%%%%%%%%%%%%%%%%%%%%%%%%%",
"%%%%o,%%%%%%%%%%%%%%%%%%%%%%%%%%%%%%%%%%%%%%%%%%%%%%%%%%%%%%%%%%",
"%%%%%;%%%%%%%%%%%%%%%%%%%%%%%%%%%%%%%%%%%%%%%%%%%%%%%%%%%%%%%%%%",
"%%%%%%%%%%%%%%%%%%%%%%%%%%%+=%%%%%%%%%%%%%+%=%%%%%%%%%%%%%%%%%%%",
"%%%%%%%+%%%%%%%%%%%%%%%%%%% ,%%%%%%%%%%%%% %,%%%%%%%%%%%%%%%%%%%",
"%%%%%%% =%%%%%%%%%%%%+%%%%XO>%%%%%%%%%%%%XX>>%%%%%%%%%%%%%%%%%%%",
"%%%%%%XX,%%%%%%%%%%%% =%%% ,%%%%%%%%%%%%% %,%%%%%%%%%%%%%%%%%%%%",
"%%%%%% >>%%%%%%%%%%%XX,%%%o;%%%%%%%%%%%%%o%;%%%%%%%%%%%%+%%%%%%%",
"%%%%%%o,%%%%%%%%%%%% >>%%%%%%%%%%%%%%%%%%%%%%%%%%%%%%%%% =%%%%%%",
"%%%%%%%;%%%%%%%%%%%%o,%%%%%%%%%%%%%%%%%%%%%%%%%%%%%%%%%XX,%%%%%%",
"%%%%%%%%%%%%%%%%%%%%%;%%%%%%%%%%%%%%%%%%%%%%%%%%%%%%%%% >>%%%%%%",
"%%%%%%%%%%%%%%%%%%%%%%%%%%%%%%%%%%%%%%%%%%%%%%%%%%%%%%%o,%%%%%%%",
"%%%%%%%%%%%%%%%%%%%%%%%%%%%%%%%%%%%%%%%%%%%%%%%%%%%%%%%%;%%%%%%%",
"%%%%%%%%%%%%%%%%%%%%%%%%%%%%%%%%%%%%%%%%%%%%%%%%%%%%%%%%%%%%%%%%",
"%%%%%%%%%%%%%%%%%%%%%%%%%%%%%%%%%%%%%%%%%%%%%%%%%%%%%%%%%%%%%%%%"
};
