/* XPM */
static char *result[] = {
/* columns rows colors chars-per-pixel */
"64 64 33 1 ",
"  c black",
". c #251121",
"X c #261221",
"o c #281222",
"O c #291222",
"+ c #291223",
"@ c #281323",
"# c #291323",
"$ c #2A1223",
"% c #291422",
"& c #281224",
"* c #2A1224",
"= c #2A1324",
"- c #291424",
"; c #2A1424",
": c #391A31",
"> c #522546",
", c #4E3B59",
"< c #575457",
"1 c #7C787C",
"2 c #E74845",
"3 c #5F4A9F",
"4 c #705480",
"5 c #604A9F",
"6 c #5F4BA0",
"7 c #A079B7",
"8 c #A179B8",
"9 c #BC91BA",
"0 c #BC92BB",
"q c #B2ACB2",
"w c #FD9195",
"e c #FFF7FF",
"r c None",
/* pixels */
"rrrrrrrrrrrrrrrrrrrrrrrrrrrrrrrrrrrrrrrrrrrrrrrrrrrrrrrrrrrrrrrr",
"rrrrrrrrrrrrrrrrrrrrrrrrrrrrrrrrrrrrrrrrrrrrrrrX.rrrrrrrrrrrrrrr",
"rrrrrrrrrrrrrrrrrrrrrrrrrrrrrrrrrrrrrrrrrrrrrr###rrrrrrrrrrrrrrr",
"rrrrrrrrrrrrrrrrrrrrrrrrrrrrrrrrrrrrrrrrrrrrrX00#rrrrrrrrrrrrrrr",
"rrrrrrrrrrrrrrrrrrrrrrrrrrrrrrrrr#rrrrrrrrrr#008#;rrrrrrrrrrrrrr",
"rrrrrrrrrrrrrrrrrrrrrrrrrrrrrrrr##rrrrrrrrrrX0088+ rrrrrrrrrrrrr",
"rrrrrrrrrrrrrrrrrrrrrrrrrrrrrrr###rrrr#rrrrX00083# rrrrrrrrrrrrr",
"rrrrrrrrrrrrrrrrrrrrrrrrrrrrr##88#rr###rr##000833# rrrrrrrrrrrrr",
"rrrrrrrrrrrrrrrrrr##rrX#rrrrr#888# ##8#r##0008833# rrrrrrrrrrrrr",
"rrrrrrrrrrrrrrrrrr#0#rX0##r###888###88###0000883## rrrrrrrrrrrrr",
"rrrrrrrrrrrrrrrrrr#00#X800##888888#88##000008883#  rrrrrrrrrrrrr",
"rrr*O@#rr######r&#X800X8808888888888800000088833# rrrrrrrrrrrrrr",
"rrrr-88##00##0##90X880X88888888888888000000888335#rrrrrrrrrrrrrr",
"rrrr%#888000000000X88888888888888888880008888833## rrrrrrrrrrrrr",
"rrrrrr#88880000000X88888888888888888888088888333#  rrrrrrrrrrrrr",
"rrrrrr##8888000008880000888888888888888888888333# rr=#rrrrrrrrrr",
"rrrrrrr##888888808000000088888888888888888883333# rr8#rrrrrrrrrr",
"rrrrrrrrr##888888#00000000888888888888888888333## XX8##r##rrrrrr",
"rrrrrrrrr###8888##00000000888888888888888883333####0X88#8#rrrrrr",
"rrrrrrrrrrr##88##000000000888888888888888883333##0000X88##rrrrrr",
"rrX##r#Xrrrr#+$#8000000008888888888888888833333##00X0X88#  rrrrr",
"rr#0##0##rrrr##8888000088888888888888888883#3###00000888# rrrrrr",
"rr#00000####r##888888888888888888888>888883=#8800000888## rrrrrr",
"rrr#0000000###88888888888888888088>>8888883788888888888#  rrrrrr",
"rrr#00888888##8>88888888888880008>223888883388880888833# rrrrrrr",
"rr#8888888883888>888888888888008>2223888883338888888833# rrrrrrr",
"r#888888888338832>8888888888008>ww2238888833635888883### rrrrrrr",
"r#888888883338832>8888888888008Xwww238888883335588333#  rrrrrrrr",
"rr#888888333388322>88888888800XXwww23888888333555XXX## rrrrrrrrr",
"rr##88883333388322wX>888888883wXwww388888883335555X  rrrrrrrrrrr",
"rrrr##833333388832wXw>88888883wwww388888888833333#  rrrrrrrrrrrr",
"rrrrr####333#88832www>888888883222888>88888833333# rrrrrrrrrrrrr",
"rrrrrrrr##33#8888822>888888888888888>e:8888833333# rrrrrrrrrrrrr",
"rrrrrrrrr##3#888888888888888888888>eeeo8888833333# rrrrrrrrrrrrr",
"rrrrrrrrrr###88>8888888888888888>>eeeeo8888833333X rrrrrrrrrrrrr",
"rrrrrrrrrrrr#88e>>88888888888>>>>1eee:,8888833333X rrrrrrrrrrrrr",
"rrrrrrrrrrrr#888e>>>>>>>>>>>>>eee1eeeo48888333333# rrrrrrrrrrrrr",
"rrrrrrrrrrrr#888ee1eee1eeeee1eeeeq1eo,8888833333## rrrrrrrrrrrrr",
"rrrrrrrrrrrrr#888e1eee1eeeee1eeeee11,88888833333#3###rrrrrrrrrrr",
"rrrrrrrrrrrrr#888eq1eeqqeeee11eeee<o88888833333##333##rrrrrrrrrr",
"rrrrrrrrrrrrr##888e1eee1eeeee1eee:o888888833333#333333#rrrrrrrrr",
"rrrrrrrrrrrrrr#888>1eee1eeeee1ee>:,88888833333333333333Xrrrrrrrr",
"rrrrrrrrrrrrrr#8888:>ee1eeee>>>>>8888888333333#333333#XXrrrrrrrr",
"rrrrrrrrrrrrrr##8888>>>>>>>>>88888888833338888#XX3X###  rrrrrrrr",
"rrrrrrrrrrrrrrr#88888888888888888888833388888888##  rrrrrrrrrrrr",
"rrrrrrrrrrrrrrr##88888888888888888833388888800888# rrrrrrrrrrrrr",
"rrrrrrrrrrrrrrrr#88888888888888888333888888000888# rrrrrrrrrrrrr",
"rrrrrrrrrrrrrrrr##8888888888888888#38888888800088X rrrrrrrrrrrrr",
"rrrrrrrrrrrrrrrr##33888888888833333##888888800088# rrrrrrrrrrrrr",
"rrrrrrrrrrrrrrr##3333333833333333333##88888888088# rrrrrrrrrrrrr",
"rrrrrrrrrrrrrrr#33333#333333333333333##8888888888# rrrrrrrrrrrrr",
"rrrrrrrrrrrrrrr#33333###3333333333333X##888888888# rrrrrrrrrrrrr",
"rrrrrrrrrrrrrrr#3333333####333333333X  ##8888888## rrrrrrrrrrrrr",
"rrrrrrrrrrrrrrr#3333333333###33333##  rr#8888888#  rrrrrrrrrrrrr",
"rrrrrrrrrrrrrrrr#8833333333# ######  rrr##888888# rrrrrrrrrrrrrr",
"rrrrrrrrrrrrrrrr#888888333## rrrrrrrrrrrr###888## rrrrrrrrrrrrrr",
"rrrrrrrrrrrrrrrr#8888888###  rrrrrrrrrrrrrr##### rrrrrrrrrrrrrrr",
"rrrrrrrrrrrrrrrr##8888###  rrrrrrrrrrrrrrrrrrrrrrrrrrrrrrrrrrrrr",
"rrrrrrrrrrrrrrrrr######  rrrrrrrrrrrrrrrrrrrrrrrrrrrrrrrrrrrrrrr",
"rrrrrrrrrrrrrrrrrrrrrrrrrrrrrrrrrrrrrrrrrrrrrrrrrrrrrrrrrrrrrrrr",
"rrrrrrrrrrrrrrrrrrrrrrrrrrrrrrrrrrrrrrrrrrrrrrrrrrrrrrrrrrrrrrrr",
"rrrrrrrrrrrrrrrrrrrrrrrrrrrrrrrrrrrrrrrrrrrrrrrrrrrrrrrrrrrrrrrr",
"rrrrrrrrrrrrrrrrrrrrrrrrrrrrrrrrrrrrrrrrrrrrrrrrrrrrrrrrrrrrrrrr",
"rrrrrrrrrrrrrrrrrrrrrrrrrrrrrrrrrrrrrrrrrrrrrrrrrrrrrrrrrrrrrrrr"
};
