/* XPM */
static char *result[] = {
/* columns rows colors chars-per-pixel */
"64 64 28 1 ",
"  c black",
". c #261221",
"X c #2A1321",
"o c #281222",
"O c #281322",
"+ c #291323",
"@ c #2A1222",
"# c #2A1323",
"$ c #281423",
"% c #291324",
"& c #391A31",
"* c #522546",
"= c #4E3B59",
"- c #575457",
"; c #7C787C",
": c #E74845",
"> c #5F4A9F",
", c #705480",
"< c #604A9F",
"1 c #A179B8",
"2 c #A17BBA",
"3 c #BC92BA",
"4 c #BC92BB",
"5 c #BC91BC",
"6 c #B2ACB2",
"7 c #FD9195",
"8 c #FFF7FF",
"9 c None",
/* pixels */
"9999999999999999999999999999999999999999999999999999999999999999",
"9999999999999999999999999999999999999999999999999999999999999999",
"9999999999999999999999999999999999999999999999999999999999999999",
"9999999999999999999999999999999999999999999999999999999999999999",
"999999999999999999999999999999999+999999999999..+..+..9999999999",
"99999999999999999999999999999999++9999999999.+4444.4+99999999999",
"9999999@99999999999999999999999+++9999+9999+54444411+ 9999999999",
"9999999%++#999999999999999999++11+99+++99++444444111% 9999999999",
"9999999+11+9999999++99.+99999+111+ ++1+9++4444111>>+O 9999999999",
"9999999++11+++9999+4+9.4++9+++111+++11+++4444111>>>+X 9999999999",
"99999999+11444+999+44+.144++111111+11++44444111>>++  99999999999",
"99999999+14444+++9.144.114111111111114444441111>>+# 999999999999",
"99999999++114444++.114.11111111111111444444111>>++  999999999999",
"999999999+11144444+111111111111111111144411111>>++ 9999999999999",
"999999999+11114444.11111111111111111111411111>>>+  9999999999999",
"999999999+11114444114444111111111111111111111>>>+ 99999999999999",
"9999999999+111141144444441111111111111111111>>>>+ 99999999999999",
"9999999999$+11111+44444444111111111111111111>>>++ 99999999++9999",
"99999999999+2111++4444444411111111111111111>>>>+  999999..1+9999",
"999.++9+9999+11++44444444411111111111111111>>>>++ 999+++441++999",
"999+4++4+999++1+14444444411111111111111111>>>>>>+ 99++444.11+++9",
"999+4444++++9++111144441111111111111111111>>>>>>+++++444.4.111+9",
"9999+444444++++11111111111111111111111*111>>>>>>1111444444.11++ ",
"9999+4411111++1111111111111111111411**1111>>>>>>111114441111++  ",
"999+11111111>111*111111111111114441*::>111>>>>>>>1114111111++  9",
"99+11111111>>1111*1111111111111441*:::>111>>>>>>>1111111111+  99",
"999+11111>>>>311>:*11111111111441*77::>111>>>>>>>>1111111>>+ 999",
"999++111>>>>>111>:*11111111111441.777:>1111>>>>>>>>1111>>>++ 999",
"99999++1>>>>>111>::*111111111144..777:>1111>>>>>>>>>>>>>+++ 9999",
"999999+++>>><111>::7.*111111111>7.777>11111>>>>>>>>>>>>++  99999",
"99999999++>><1111>:7.7*11111111>7777>1111111>>>>>>>>>+++  999999",
"999999999++><1111>:777*111111111>:::11111111>>>>>>>>++  99999999",
"9999999999+++111111::*11111111111111118&1111>>>>>>>+++ 999999999",
"999999999999.1111111111111111111111*888o1111>>>>>>>>>+ 999999999",
"999999999999.111*1111111111111111**8888o1111>>>>>>>>>+ 999999999",
"999999999999+1118**11111111111****;888&=1111>>>>>>>>>+ 999999999",
"999999999999+11118*************888;888o,111>>>>>>>>>>+ 999999999",
"999999999999+111188;888;88888;88886;8o=1111>>>>>>>>>>++999999999",
"9999999999999+11118;888;88888;88888;;=11111>>>>>>>>>>>+ 99999999",
"9999999999999+111186;88668888;;8888-o11111>>>>>>>>>>>>+ 99999999",
"9999999999999++11118;888;88888;888&o111111>>>>>>>>>>>++ 99999999",
"99999999999999+1111*;888;88888;88*&=11111>>>>>>>>>>>++  99999999",
"99999999999999+11111&*88;8888*****1111111>>>>>>>>>>>+>++++999999",
"99999999999999++11111*********1111111111>>>>>>>>>>>++>>>>++99999",
"99999999999999++111111111111111111111111>>>>>>>>>>>+>>>>>>>+9999",
"99999999999999++>111111111111111111111>>>>>>>>>>>>>>>>>>>>>>.999",
"9999999999999++>>>111111111111111111>>>>>>>>>>>>>>>>>>>>>>+..999",
"9999999999999+>>>>><11111111111111>>>>>>>>>>>>>>>>>>>>>>+++  999",
"9999999999999+>>>>><<111111111>>>>>>>>>>>>>>>>>>++>>>>>++  99999",
"9999999999999+>>>>>>><>>1>>>>>>>>>>>>>>>>>>>11111++>>>++  999999",
"9999999999999+>>>>>>>>>><>>>>>>>>>>>>>>>>>11111111+++++  9999999",
"99999999999999+11>>>>>>>>+>>>>>>>>>>>>>>11111144111+  9999999999",
"99999999999999+111111>>>+++>>>>>>>>>>>>111111444111++ 9999999999",
"99999999999999+1111111+++  ++>>>>>+++>11111111444111+ 9999999999",
"99999999999999++1111+++  9999++++++  ++111111144411++ 9999999999",
"999999999999999++++++  999999999999999++11111111411+  9999999999",
"999999999999999999999999999999999999999++1111111111+ 99999999999",
"9999999999999999999999999999999999999999++111111111+ 99999999999",
"99999999999999999999999999999999999999999++1111111++ 99999999999",
"999999999999999999999999999999999999999999+1111111+  99999999999",
"999999999999999999999999999999999999999999++111111+ 999999999999",
"9999999999999999999999999999999999999999999+++111++ 999999999999",
"999999999999999999999999999999999999999999999+++++ 9999999999999",
"9999999999999999999999999999999999999999999999999999999999999999"
};
