/* XPM */
static char *result[] = {
/* columns rows colors chars-per-pixel */
"64 64 94 2 ",
"   c #AA9B74",
".  c #B09F77",
"X  c #B1A077",
"o  c #B6A57B",
"O  c #BAA97D",
"+  c #55B691",
"@  c #5FBC95",
"#  c #63BC94",
"$  c #64BE99",
"%  c #77B990",
"&  c #6CC49E",
"*  c #76C59F",
"=  c #7CC69F",
"-  c #73C99F",
";  c #73C7A1",
":  c #79C7A0",
">  c #75C8A2",
",  c #7CC9A2",
"<  c #8ABD8F",
"1  c #BEAD80",
"2  c #BFBE8E",
"3  c #C0AF81",
"4  c #C5B484",
"5  c #C9B786",
"6  c #CDBC87",
"7  c #C5BE8B",
"8  c #CEBC89",
"9  c #D0BE8B",
"0  c #86C297",
"q  c #83C59D",
"w  c #8BC59C",
"e  c #85C89F",
"r  c #95C497",
"t  c #9BC297",
"y  c #94C49A",
"u  c #9BC499",
"i  c #96C89E",
"p  c #9CC99E",
"a  c #A0C397",
"s  c #A3C498",
"d  c #AAC79A",
"f  c #A4CA9F",
"g  c #ACCA9D",
"h  c #B9C696",
"j  c #B4CB9E",
"k  c #BCCC9E",
"l  c #81C7A1",
"z  c #84C9A2",
"x  c #8BCBA2",
"c  c #84CFAC",
"v  c #94CBA3",
"b  c #9DCCA2",
"n  c #97CEAA",
"m  c #86D1AC",
"M  c #8ED1AF",
"N  c #94D2AF",
"B  c #8BD2B1",
"V  c #90D5B5",
"C  c #9DDCBD",
"Z  c #A4CDA3",
"A  c #ABCDA2",
"S  c #B1CDA1",
"D  c #BCCEA1",
"F  c #ABD0A4",
"G  c #A1D1AC",
"H  c #ADD3AD",
"J  c #BCD2A4",
"K  c #B3D3AB",
"L  c #AAD6B2",
"P  c #A5DCBB",
"I  c #B5DAB6",
"U  c #BADAB5",
"Y  c #CEC08C",
"T  c #D0C18E",
"R  c #CFC796",
"E  c #CBC896",
"W  c #C1CD9F",
"Q  c #CDCC9B",
"!  c #D4C594",
"~  c #D6C896",
"^  c #D8C997",
"/  c #D6CC9A",
"(  c #D9CE9C",
")  c #CFD09F",
"_  c #D6D09F",
"`  c #DCD19E",
"'  c #C3CFA0",
"]  c #C8CFA1",
"[  c #C5D2A3",
"{  c #CCD3A3",
"}  c #C0D4A9",
"|  c #CAD4A9",
" . c #D4D3A3",
".. c #DBD3A2",
/* pixels */
"; ; ; ; ; ; ; ; ; ; ; ; ; > - - ; ; ; ; ; ; ; ; ; ; ; ; & > ; ; ; ; ; ; ; ; ; ; ; ; ; > ; ; ; ; ; ; ; ; ; ; ; ; ; ; ; + , ; ; ; ",
"; ; ; ; ; & ; ; ; ; ; ; , > , , , , , - ; - - ; - ; ; ; + ; , > ; ; ; ; ; ; ; ; ; & , > ; ; ; ; ; ; ; ; ; ; ; ; ; ; @ # C > ; ; ",
"; ; ; ; ; + , ; ; ; x x F G F b F Z b , > - > - - ; ; @ @ ; C ; ; ; ; ; ; ; ; ; ; + C ; ; ; ; ; ; ; & > ; ; ; ; ; ; + B V ; ; ; ",
"; ; ; ; @ @ C ; z n J J v b v b b F l v v , * ; ; ; ; + ; V V ; ; ; ; ; ; ; ; ; # $ c > ; ; ; , z , , > ; ; ; ; ; ; $ C ; ; ; ; ",
"; ; ; ; + B V , x { [ e D { [ [ [ | { } l Z , z : , , * , P , z , , , , , , , : # n z l w v Z D [ D k a t u w - ; ; ; B ; ; ; ; ",
"; ; ; ; & C z d { j { ..` ...... . . . . .F v A Z A A A A K F Z b b Z b n b Z v p K S A D ' ] / Q Q h W D j u > ; ; ; ; ; ; ; ; ",
"; ; ; ; ; N p { j  .........` _  ..... .{ { { b Z Z Z Z Z Z Z b v b p b p b i f f A Z S S R 9 ( ........k k j u l ; ; ; ; ; ; ; ",
"; ; ; ; ; w D D  . ......./ ( _ ( Q Q ^ `  .] ..{ {  . . .{  .{ { [ { W { { ) Q Q ( _  .( ................ .] g w ; ; ; ; ; ; ; ",
"; ; ; ; : v J  . ..... .9 9 ~ ! R E / ../ / ..( ....................................` .................. ... .{ Z w > - ; ; ; ; ",
"; ; ; - , S  . ...../ 8 ( / 8 8 8 5 8 7 ~ ( / ( ..............` ` ( ( ( ( ^ ( ( ( ` ` ` _ ` ....` ` ^ ^ .... . . .g w ; ; ; ; ; ",
"; ; - x x |  ..... .7 ~ ! 8 8 6 8 8 8 8 8 T / ( ^ ( ( ( ( ( ` / / ~ / ^ ^ / ~ ~ ^ ( ( ( ( ( ^ 9 9 ( ( ............ .r ; ; ; ; ; ",
"; - > > J ' ......_ / 8 8 5 8 5 8 8 8 8 8 8 8 9 ! ^ ! ~ ~ / ~ ^ ~ ~ ~ ~ ! ! ! ! ! 9 ! ! ~ ! ~ ~ ^ 9 9 8 /  . ... . .] ; ; ; ; ; ",
"; ; ; ; z ........^ ! 8 6 5 5 o 8 8 8 8 8 8 9 8 6 8 6 6 6 6 6 6 6 6 6 8 8 8 8 9 9 8 8 9 8 5 6 5 6 6 6 6 8 ~ _ ...... .Z ; ; ; ; ",
"; ; ; ; |  .....( ( 6 8 5 8 o 8 1 8 8 5 8 8 8 8 6 6 9 6 9 8 6 8 8 6 9 6 6 6 8 8 5 9 8 8 9 9 8 8 6 6 6 9 8 8 9 ~ .... .F ; ; ; ; ",
"; ; ; x > ........( 5 8 8 6 8     5 8 8 8 8 8 8 6 6 6 6 5 8 6 8 8 8 9 8 9 8 8 8 9 8 8 8 8 8 6 9 9 6 6 6 8 8 9 /  ... .Z ; ; ; ; ",
"; ; ; ; J  .....` 8 8 6 8 8         6 6 8 8 6 8 6 6 5 5 o 5 8 6 8 8 8 8 6 8 8 6 5 6 9 8 8 9 8 6 6 9 9 6 8 8 8 (  . . .J ; ; ; ; ",
"; ; & ; , { ......^ 6 6 8 5 8     o o 8 8 8 8 8 6 9 6 o 6 3 8 8 6 8 8 9 8 8 5 5 o 3 8 6 8 8 8 8 6 6 6 6 8 9 9 /  ...{ J ; ; ; ; ",
"; ; - ; , A ......( 8 8 8 8 o o o o 8 6 8 8 8 8 6 9 6 6     6 6 5 8 8 5 8 8 8 o 3 8 6 8 8 8 8 8 6 6 9 6 9 9 / _ .. .] v ; ; ; ; ",
"; ; ; - ; A  .....^ 8 8 8 8 8 1 1 o 8 8 8 8 8 8 6 6 9         8 9 8 9 6 8 8 8 8     o 8 8 8 8 8 6 9 6 6 9 9 / .. . .S n ; ; ; ; ",
"; ; - ; ; l {  .....8 8 8 8 6 5 8 8 3 8 8 9 8 8 6 9 5 6     o o 5 6 8 8 8 5 9         o 8 8 8 8 6 6 9 6 9 9 ` ....| < n ; ; ; ; ",
"; ; ; ; > l {  .....~ 8 8 9 8 8 8 8 8 8 8 8 8 8 6 6 8 o o O O 8 9 6 5 8 8 8 5 8     o 8 8 8 8 8 9 6 6 8 9 9 ` .. .J Z ; ; ; ; ; ",
"; ; ; ; ; , A  .....( 8 8 8 8 8 8 6 8 8 8 9 6 6 9 6 8 6 1 O o 8 8 6 5 3 8 8 8 o . O 8 9 8 8 8 8 9 6 9 6 9 ..`  . .Z v ; ; ; ; ; ",
"; ; ; ; ; ; S  .....~ 8 8 8 8 8 8 8 8 8 8 8 8 8 6 6 6 6 8 5 8 3 8 8 3 8 8 9 8 8 5 8 o 3 8 8 8 6 6 6 6 6 ^ ` .. .D n > ; ; ; ; ; ",
"; ; ; ; ; ; z { ....( 8 8 8 8 8 8 6 8 9 8 8 8 9 6 6 9 6 8 8 8 8 5 8 9 o o 9 8 8 8 9 8 8 8 8 8 8 6 9 9 9 ` ` .. .g U > ; ; ; ; ; ",
"; ; ; ; ; > z [  ...` T 8 8 8 8 8 6 8 8 8 8 8 8 5 5 9 6 6 6 8 8 9 8 o o O o 9 8 8 Y 6 8 8 8 8 8 8 8 9 ^ ( ` ..] L L > > ; ; ; ; ",
"; ; ; ; ; ; x |  ...` 6 8 8 8 6 8 8 5 8 8 8 5 4   O 6 6 9 8 8 8 9 5 9 o O 9 6 9 6 6 8 6 8 8 8 8 8 9 9 9 .... .K I : > ; ; ; ; ; ",
"; ; ; ; - ; x {  ...( 6 8 8 8 8 5 5 o 5 8 8 8 X O 6 6 8 8 6 8 6 9 6 3 O 8 8 8 8 6 6 8 8 8 8 8 8 8 8 9 ( ` ..] < H > > > ; ; ; ; ",
"; ; ; ; - - z | .._ ( 6 8 8 8 8 8 o 8 3 8 9 8 8     O Y 8 8 8 6 8 9 6 6 8 3 9 8 8 6 8 8 8 8 8 8 8 9 9 ( ....k b : > > > ; ; ; ; ",
"; ; ; ; ; ; z |  .....8 8 8 8 8 8 8     8 8 8         O 6 6 6 6 6 9 8 8 9 8 8 8 6 6 6 6 9 5 5 6 8 6 9 ( ....W G : > > ; ; ; ; ; ",
"; ; ; ; ; ; z |  .../ 8 8 8 8 8 8         8 5 5     O 6 7 6 6 6 9 5 8 8 6 8 9 8 Y 8 6 6 6 9 9 6 5 9 9 ( ..` ] < > > > ; ; ; ; ; ",
"; ; ; ; & , x |  ... .8 8 8 8 8 5 8     o O 8 X   O 6 9 5 8 6 9 6 6 8 8 8 8 8 8 8 8 5 6 9 5 9 9 6 9 T ` ....' : > : > ; ; ; ; ; ",
"; ; ; ; + m x |  .....8 8 8 9 8 8 o o o o 8 8 8 4 5 X O 8 8 6 Y 6 6 8 8 8 8 5 3 8 4 Y 6 6 9 9 5 9 9 9 ` ` ..' : : > > ; ; ; ; ; ",
"; ; - @ & V z |  ...^ 8 8 9 8 8 5 8 1 1 o 6 6 T 8 8 6 6 9 6 9 8 8 5 9 8 6 8 3 4 4 . 7 6 6 9 8 8 5 6 9 ( .... .= * : > > ; ; ; ; ",
"; ; & + C > e {  .....8 8 8 5 5 o 8 8 8 6 4 6 8 8 8 8 9 5 6 8 8 8 9 8 8 5 8 9 O   6 7 8 9 5 9 9 9 9 9 ( ....{ = > > > > ; ; ; ; ",
"; ; ; & m > w |  .....8 8 8 5 . 4 8 6 5 8 8 6 8 8 8 6 6 8 8 8 5 8 8 6 9 5 6 o O O     6 6 9 5 9 6 9 9 ~ ..` { A * > > > ; ; ; ; ",
"; ; ; ; > > x |  ...^ 8 8 8 3 3     6 6 7 7 8 6 8 8 6 6 9 8 8 8 8 8 8 5 9 6 9 O     .   6 5 3 4 8 6 6 ! _ .. .g * : > > ; ; ; ; ",
"; ; ; ; - , z  . .....8 5 9 8         5 7 8 8 8 8 8 8 6 8 5 8 8 9 8 8 8 8 9 3 o 6     6 8 O 4 . 8 6 9 9 ` ` ..A : > > ; ; ; ; ; ",
"; ; ; ; > , F  .....( 6 8 9 o o     O 8 5 6 8 8 8 6 6 8 9 8 8 8 4 4 6 8 8 8 9 8 .   9 6 8 8   O 8 6 6 9 ( `  .D : > > ; ; ; ; ; ",
"; ; ; ; > l S  .......8 5 8 8     O 8 8 9 6 9 5 6 8 6 9 9 8 5 4 o O 8 8 5 8 8 8 6 4 8 . 8 O O     6 6 9 ( ` ..{ : > > ; ; ; ; ; ",
"; ; ; ; , z | { ....~ 8 8 9 3 o 1 8 o 8 6 6 9 6 6 9 5 6 8 9 9 . O 9 9 8 9 6 8 9 8 8 8 8 5 8         8 9 ! ....{ A > > ; ; ; ; ; ",
"; ; - ; z F {  ...' ~ 8 8 8 8 6 8 4 4 8 8 8 8 8 8 8 8 8 8 5 8 8     o 8 8 5 9 8 8 8 8 8 8 O 3     6 9 8 ! ` ....A : : ; ; ; ; ; ",
"; ; ; - , J  .....( ( 8 8 8 8 8 8 5 8 9 8 8 6 8 8 8 8 8 8 8 8         o 8 8 9 8 8 8 8 6 6 8 .   3 9 9 9 9 ` .. .] : : ; ; ; ; ; ",
"; ; ; x z  . .....( 5 8 8 8 8 8 8 8 8 8 8 8 8 8 8 8 8 8 8 8 5 4     o 9 8 8 8 8 6 8 5 8 6 8 8 4 6 . 8 5 8 / .... .A : ; ; ; ; ; ",
"; ; > , J | ......~ 8 8 5 8 8 9 8 8 8 8 8 8 4 6 8 8 8 8 8 9 8 1 . O 5 6 8 8 8 9 8 8 8 8 8 8 8 6 6 9 8 8 9 ( .... .S x : ; ; ; ; ",
"; ; - x U  ...../ ^ 8 8 8 8 8 5 8 8 8 8 4 1   o 8 8 8 8 8 8 8 8 6 4 o 1 9 8 8 8 8 6 8 8 6 8 6 9 6 6 5 8 8 ! ......k K > ; ; ; ; ",
"; ; - x  .......! ! 8 8 8 8 8 8 8 8 8 6 5     8 8 8 8 8 8 5 8 8 5 8 5 9 9 8 9 9 8 5 8 8 5 8 8 8 6 9 8 8 8 8 / ....) A > ; ; ; ; ",
"; ; - v | .. ._ / 8 8 8 8 8 8 8 6 8 8 8 9 O       8 8 8 8 8 8 8 9 5 9 5 6 5 8 5 8 8 6 5 8 8 8 8 9 6 9 5 8 9 ( .. ...< > ; ; ; ; ",
"; - - v | ....` ~ 8 8 8 8 8 8 8 8 8 6 6 9           8 8 8 8 8 8 9 8 9 6 6 6 8 8 8 8 8 8 8 8 8 8 5 6 6 9 8 8 ! .... .S ; ; ; ; ; ",
"; ; ; z { ......T Y 8 8 6 5 8 8 8 8 8 5 3 1       5 9 8 9 9 8 8 6 9 9 9 9 9 9 9 8 8 8 6 5 6 6 9 9 6 6 8 9 9 / ......' ; ; ; ; ; ",
"; ; > z } ......6 Y 6 6 8 8 8 8 8 8 8 8 4     1 3 5 9 9 9 9 9 9 9 T ! ! ! ! ! ~ 9 8 8 6 9 6 9 6 9 9 8 6 9 9 / ......' > ; ; ; ; ",
"; ; ; , | ......Y 5 6 Y 8 8 8 8 8 8 9 9 8 1 1 5 1 3 / ! ^ 9 9 ^ ! ^ ! ! ! T ! 9 ^ ! 9 9 9 9 6 9 8 8 6 9 9 ` _ ......[ > ; ; ; ; ",
"; ; > z J ......` Y 6 6 Y 8 8 8 8 9 9 9 / / 9 ! 1 / ! ! ! 9 ! 9 ! 6 ^ ( ( ( ( ` ( 9 ~ ~ ! 9 9 9 8 8 9 ~ / 7 _ ....| S > ; ; ; ; ",
"; ; ; , J  . ..... .7 8 Y 8 8 R 9 ( ^ ( ( 9 9 9 ! 5 ( ` ( ( / ( ( ` ` ` ......` ....( ~ ! ^ ^ ! 9 ! / ^ 7 .... ...< S ; ; ; ; ; ",
"; ; ; ; b |  ... .../ / ~ ! ~ ~ ` 9 9 9 ( ....( _ ....` ....` ..` ..` ..( ..( ....( ` ..` ` ^ ^ / / ..^ .._ .. .s S f ; ; ; ; ; ",
"; ; ; ; > [  . ... ...R ! ! ! ! 9 ^ ` ............` _ ` ` / _ / / _ ` / R R / ! ^ ......` ......( ( ( .._  . .u x S x > ; ; ; ; ",
"; ; ; ; > e [ { .. . .....( ( ( ` ..........( _ ]  .] | ' S S D D g u a j k h / _ ~ ~ ` ..........` .... . .< v Z < < ; ; ; ; ; ",
"; ; ; ; ; q u |  . . ..............._  .Q ' | D A Z q n A b b b v b b b = q w < u d ]  .Q / ............| 2 u D < x ; ; ; ; ; ; ",
"; ; ; ; ; ; $ J { |  .....( ( .._ | ' A % G H H n Z w n * * > > > > : : * : , > = q y y ' { ]  .........y d A y % > ; ; ; ; ; ; ",
"; ; ; ; ; ; ; n i D {  .] W D ' f w l A p I = : * : > > > > > > > > > > > > > : , : = : , e S {  . .] < A d < < $ C ; ; ; ; ; ; ",
"; ; ; ; ; ; ; ; > r u s k W S g f A b : = M : : > : > > > > > > > > > > > > ; : * , : : q q 0 u i D D j ' u y + V V ; ; ; ; ; ; ",
"; ; ; ; ; ; ; ; ; ; ; ; : ; ; ; ; ; ; ; ; ; ; ; ; ; ; ; ; ; ; ; ; ; ; ; > ; ; ; ; ; ; ; ; ; ; ; ; ; ; ; ; ; ; $ C ; ; ; ; ; ; ; ",
"; ; ; ; ; ; ; ; ; ; ; ; ; ; ; ; ; ; ; ; ; ; ; ; ; ; ; ; ; ; ; ; ; ; ; ; > ; ; ; ; ; ; ; ; ; ; ; ; ; ; ; ; ; ; ; B ; ; ; ; ; ; ; ",
"; ; ; ; ; ; ; ; ; ; ; ; ; ; ; ; ; ; ; ; ; ; ; ; ; ; ; ; ; ; ; ; ; ; ; ; ; ; ; ; ; ; ; ; ; ; ; ; ; ; ; ; ; ; ; ; ; ; ; ; ; ; ; ; ",
"; ; ; ; ; ; ; ; ; ; ; ; ; ; ; ; ; ; ; ; ; ; ; ; ; ; ; ; ; ; ; ; ; ; ; ; ; ; ; ; ; ; ; ; ; ; ; ; ; ; ; ; ; ; ; ; ; ; ; ; ; ; ; ; "
};
