/* XPM */
static char *result[] = {
/* columns rows colors chars-per-pixel */
"64 64 8 1 ",
"  c black",
". c #192608",
"X c #399031",
"o c #18A068",
"O c #40B088",
"+ c #70C89F",
"@ c #A0E0C0",
"# c None",
/* pixels */
"################################....############################",
"################################....############################",
"################################....############################",
"################################....############################",
"############################....@@@@....########################",
"############################....@@@@....########################",
"############################....@@@@.... #######################",
"############################....@@@@....  ######################",
"########............########....@@@@....  ##............########",
"########............########....@@@@....   #............########",
"########............########....@@@@....   #............########",
"########............ #######....@@@@....   #............ #######",
"####....++++++++++++........@@@@++++........@@@@@@@@@@@@....####",
"####....++++++++++++........@@@@++++........@@@@@@@@@@@@....####",
"####....++++++++++++........@@@@++++........@@@@@@@@@@@@....####",
"####....++++++++++++........@@@@++++........@@@@@@@@@@@@.... ###",
"########....++++++++++++....++++++++....OOOO++++@@@@....     ###",
"########....++++++++++++....++++++++....OOOO++++@@@@....    ####",
"########....++++++++++++....++++++++....OOOO++++@@@@....    ####",
"########....++++++++++++....++++++++....OOOO++++@@@@....   #####",
"############....++++++++++++....OOOO....OOOOOOOO....      ######",
"############....++++++++++++....OOOO....OOOOOOOO....     #######",
"############....++++++++++++....OOOO....OOOOOOOO....    ########",
"############....++++++++++++....OOOO....OOOOOOOO....    ########",
"####....................++++............OOOO................####",
"####....................++++............OOOO................####",
"####....................++++............OOOO................####",
"####....................++++............OOOO................ ###",
"....@@@@@@@@@@@@++++........++++....OOOO....oooo++++++++++++....",
"....@@@@@@@@@@@@++++........++++....OOOO....oooo++++++++++++....",
"....@@@@@@@@@@@@++++........++++....OOOO....oooo++++++++++++....",
"....@@@@@@@@@@@@++++........++++....OOOO....oooo++++++++++++....",
"####....@@@@++++++++OOOO................oooooooooooooooo....    ",
"####....@@@@++++++++OOOO................oooooooooooooooo....    ",
"####....@@@@++++++++OOOO................oooooooooooooooo....    ",
"####....@@@@++++++++OOOO................oooooooooooooooo....   #",
"########....OOOOOOOOOOOOOOOO........XXXXXXXXXXXX........      ##",
"########....OOOOOOOOOOOOOOOO........XXXXXXXXXXXX........     ###",
"########....OOOOOOOOOOOOOOOO........XXXXXXXXXXXX........    ####",
"########....OOOOOOOOOOOOOOOO........XXXXXXXXXXXX........   #####",
"############........................................      ######",
"############........................................     #######",
"############........................................    ########",
"############........................................    ########",
"########....++++++++OOOO....XXXX........XXXXOOOOOOOO....########",
"########....++++++++OOOO....XXXX........XXXXOOOOOOOO....########",
"########....++++++++OOOO....XXXX........XXXXOOOOOOOO.... #######",
"########....++++++++OOOO....XXXX........XXXXOOOOOOOO....  ######",
"####....++++++++OOOOXXXXXXXXXXXXXXXXX...XXXXXXXXXXXXoooo....####",
"####....++++++++OOOOXXXXXXXXXXXXXXXXX...XXXXXXXXXXXXoooo....####",
"####....++++++++OOOOXXXXXXXXXXXXXXXXX...XXXXXXXXXXXXoooo.... ###",
"####....++++++++OOOOXXXXXXXXXXXXXXXXX...XXXXXXXXXXXXoooo....  ##",
"####....................OOOOOOOOOOOOXXXX....................  ##",
"####....................OOOOOOOOOOOOXXXX....................   #",
"####....................OOOOOOOOOOOOXXXX....................   #",
"####....................OOOOOOOOOOOOXXXX....................  ##",
"###########             ....OOOOXXXX....                     ###",
"########################....OOOOXXXX....     ###################",
"########################....OOOOXXXX....    ####################",
"########################....OOOOXXXX....   #####################",
"############################........      ######################",
"############################........     #######################",
"############################........    ########################",
"############################........   #########################"
};
