/* XPM */
static char *result[] = {
/* columns rows colors chars-per-pixel */
"64 64 7 1 ",
"  c black",
". c #2B4D2F",
"X c #3E6E44",
"o c #A9A499",
"O c #F2EBDB",
"+ c white",
"@ c None",
/* pixels */
"@@@@@@@@@@@@@@@@@@@@@@@@@@@@@@@@@@@@@@@@@@@@@@@@@@@@@@@@@@@@@@@@",
"@@@@@@@@@@@@@@@@@@@@@@@@@@@@@@@@@@@@@@@@@@@@@@@@@@@@@@@@@@@@@@@@",
"@@@@@@@@@@@@@@@@@@@@@@@@@@@@@@@@@@@@@@@@@@@@@@@@@@@@@@@@@@@@@@@@",
"@@@@@@@@@@@@@@@@@@@@@@@@@@@@@@@@@@@@@@@@@@@@@@@@@@@@@@@@@@@@@@@@",
"@@@@@@@@@@@@@@@@@@@@@@@@@@@@@@@@@@@@@@@@@@@@@@@@@@@@@@@@@@@@@@@@",
"@@@@@@@@@@@@@@@@@@@@@@@@@@@@@@@@@@@@@@@@@@@@@@@@@@@@@@@@@@@@@@@@",
"@@@@@@@@@@@@@@@@@@@@@@@@@@@@@@@@@@@@@@@@@@@@@@@@@@@@@@@@@@@@@@@@",
"@@@@@@@@@@@@@@@@@@@@@@@@@@@@@@@@@@@@@@@@@@@@@@@@@@@@@@@@@@@@@@@@",
"@@@@@@@@@@@@@@@@@@@@@@@@@             @@@@@@@@@@@@@@@@@@@@@@@@@@",
"@@@@@@@@@@@@@@@@@@@@@@@@@             @@@@@@@@@@@@@@@@@@@@@@@@@@",
"@@@@@@@@@@@@@@@@@@@@@@@  OOOOOOOOOOOOO  @@@@@@@@@@@@@@@@@@@@@@@@",
"@@@@@@@@@@@@@@@@@@@@@@@  OOOOOOOOOOOOO  @@@@@@@@@@@@@@@@@@@@@@@@",
"@@@@@@@@@@@@@@@@@@@@@  +++++++++++++++OO  @@@@@@@@@@@@@@@@@@@@@@",
"@@@@@@@@@@@@@@@@@@@@@  +++++++++++++++OO  @@@@@@@@@@@@@@@@@@@@@@",
"@@@@@@@@@@@@@@@@@@@  +++++++++++++++++++OO  @@@@@@@@@@@@@@@@@@@@",
"@@@@@@@@@@@@@@@@@@@  +++++++++++++++++++OO  @@@@@@@@@@@@@@@@@@@@",
"@@@@@@@@@@@@@@@@@  +++++++++++++++++++++++OO  @@@@@@@@@@@@@@@@@@",
"@@@@@@@@@@@@@@@@@  +++++++++++++++++++oo++OO  @@@@@@@@@@@@@@@@@@",
"@@@@@@@@@@@@@@@  +++++++oo++++++++++++oo++++OO  @@@@@@@@@@@@@@@@",
"@@@@@@@@@@@@@@@  +++++++oo++++++++++++++OO++OO  @@@@@@@@@@@@@@@@",
"@@@@@@@@@@@@@@@  +++++OO++OO++++++++++++OO++OO  @@@@@@@@@@@@@@@@",
"@@@@@@@@@@@@@@@  +++++OO++OO++++++++++++++++OO  @@@@@@@@@@@@@@@@",
"@@@@@@@@@@@@@  +++++++++++++++++++++++++++++++OO  @@@@@@@@@@@@@@",
"@@@@@@@@@@@@@  +++++++++++++++++++++++++++++++OO  @@@@@@@@@@@@@@",
"@@@@@@@@@@@@@  +++++++++++++++++++++++++++++++OO  @@@@@@@@@@@@@@",
"@@@@@@@@@@@@@  +++++++++++++++++++++++++++++++OO  @@@@@@@@@@@@@@",
"@@@@@@@@@@@  +++++++++++++++++++++++++++++++++++OO  @@@@@@@@@@@@",
"@@@@@@@@@@@  +++++++++++++++++++++++++++++++++++OO  @@@@@@@@@@@@",
"@@@@@@@@@@@  +++++++++++++++++++++++++++++++++++OO  @@@@@@@@@@@@",
"@@@@@@@@@@@  +++++++++++++++++++++++++++OO++++++OO  @@@@@@@@@@@@",
"@@@@@@@@@  +++++++++++++++++++++++++++++OO++++++++OO  @@@@@@@@@@",
"@@@@@@@@@  ++++++++++++oo++OO+++++++++oo++OO++++++OO  @@@@@@@@@@",
"@@@@@@@@@  ++++++++++++oo++OO+++++++++oo++OO++++++OO  @@@@@@@@@@",
"@@@@@@@@@  ++++++++++++++OO+++++++++++++++++++++++OO  @@@@@@@@@@",
"@@@@@@@  +++++OO+++++++++OO+++++++++++++++++++++++++OO  @@@@@@@@",
"@@@@@@@  +++++OO++++++++++++++++++++++++++++++++++++OO  @@@@@@@@",
"@@@@@  +++++oo++++++++++++++++++++++++++++++++++++OOOOoo  @@@@@@",
"@@@@@  +++++oo++++++++++++++++++++++++++++++++++++OOOOoo  @@@@@@",
"@@@@@  ++++++++++++++++                   ++++++OOOOOOoo  @@@@@@",
"@@@@@  ++++++++++++++++                   ++++++OOOOOOoo  @@@@@@",
"@@@@@  ++++++++++++++  ...................  ++OOOOOOOOoo  @@@@@@",
"@@@@@  ++++++++++++++  ...................  ++OOOOOOoooo  @@@@@@",
"@@@@@  ++++++++++++  XXXXXXXXXXXXXXXXXXX....  OOOOOOoooo  @@@@@@",
"@@@@@  ++++++++++++  XXXXXXXXXXXXXXXXXXX....  OOOOOOoooo  @@@@@@",
"@@@@@  ++++++++++++  XXXXXXXXXXXXXXXXXXXXX..  OOOOOOoooo  @@@@@@",
"@@@@@  +++++++OO+++  XXXXXXXXXXXXXXXXXXXXX..  OOOOoooooo  @@@@@@",
"@@@@@  +++++++OO+++  XXXXXXXXXXXXXXXXXXXXX..  OOOOoooooo  @@@@@@",
"@@@@@  +++++++++oo+  XXXXXXXXXXXXXXXXXXXXX..  OOoooooo  @@@@@@@@",
"@@@@@  +++++++++oo+  XXXXXXXXXXXXXXXXXXXXX..  OOoooooo  @@@@@@@@",
"@@@@@@@  ++++++++++  XXXXXXXXXXXXXXXXXXXXX..  oooooo  @@@@@@@@@@",
"@@@@@@@  ++++++++++  XXXXXXXXXXXXXXXXXXXXX..  oooooo  @@@@@@@@@@",
"@@@@@@@@@    ++++++  XXXXXXXXXXXXXXXXXXXXX..  oo    @@@@@@@@@@@@",
"@@@@@@@@@    ++ +++  XXXXXXXXXXXXXXXXXXXXX..  oo     @@@@@@@@@@@",
"@@@@@@@@@                                             @@@@@@@@@@",
"@@@@@@@@                                               @@@@@@@@@",
"@@@@@@@@                                               @@@@@@@@@",
"@@@@@@@@                                               @@@@@@@@@",
"@@@@@@@@                                              @@@@@@@@@@",
"@@@@@@@@@                                           @@@@@@@@@@@@",
"@@@@@@@@@@@                                       @@@@@@@@@@@@@@",
"@@@@@@@@@@@@@@@@                             @@@@@@@@@@@@@@@@@@@",
"@@@@@@@@@@@@@@@@@@@@@@@@@@@@@@@@@@@@@@@@@@@@@@@@@@@@@@@@@@@@@@@@",
"@@@@@@@@@@@@@@@@@@@@@@@@@@@@@@@@@@@@@@@@@@@@@@@@@@@@@@@@@@@@@@@@",
"@@@@@@@@@@@@@@@@@@@@@@@@@@@@@@@@@@@@@@@@@@@@@@@@@@@@@@@@@@@@@@@@"
};
