/* XPM */
static char *result[] = {
/* columns rows colors chars-per-pixel */
"64 64 50 1 ",
"  c black",
". c #343434",
"X c #422611",
"o c #5E3618",
"O c #575014",
"+ c #57501B",
"@ c #665E1E",
"# c #69601F",
"$ c #7C721D",
"% c #7D7226",
"& c gray30",
"* c #6B6856",
"= c #787457",
"- c #78745A",
"; c #D03920",
": c #874D23",
"> c #E64425",
", c #E05822",
"< c #C26E32",
"1 c #FC7229",
"2 c #EE534F",
"3 c #948724",
"4 c #92862B",
"5 c #9B8E2D",
"6 c #B2A42A",
"7 c #B3A436",
"8 c #D6B80F",
"9 c #F2D216",
"0 c #D4C133",
"q c #FFEB3B",
"w c #FFEB3C",
"e c #908949",
"r c #8A8560",
"t c #A49D67",
"y c #FD9D6A",
"u c #CABF73",
"i c #DECC41",
"p c #E9D843",
"a c #F6E05C",
"s c #E8DB7A",
"d c #FFF177",
"f c #C0BA95",
"g c #D3CFB5",
"h c #EFE6A3",
"j c #FFF5A0",
"k c #E5E0B7",
"l c #FFF8BC",
"z c #FFF8BD",
"x c white",
"c c None",
/* pixels */
"cccccccccccccccccccccccccccccccccccccccccccccccccccccccccccccccc",
"cccccccccccccccccccccccccccccccccccccccccccccccccccccccccccccccc",
"cccccccccccccccccccccccccccccccccccccccccccccccccccccccccccccccc",
"cccccccccccccccccccccccccccccccccccccccccc   ccccccccccccccccccc",
"ccccccccccccccccccccccccccccccccccccccccc    ccccccccccccccccccc",
"ccccccccccccccccccccccccccccccccccccccc      ccccccccccccccccccc",
"ccc  cccccccccccccccccccccccccccccccccw      ccccccccccccccccccc",
"cc    wcccccccccccccccccccccccccccccdj&     cccccccccccccccccccc",
"cc   wddcccccccccccccccccccccccccddjjd      ccccccccccccccccdwcc",
"ccc  wwdddccccccccccccccccccccccjjjjww     cccccccccccccccjjjdwc",
"ccc  wwwdddccccccccccccccccccjjjjjwwww    ccccccccccccccjjjjdwwc",
"cccc www9wddcccccccccccccccjjjjdwwwww   ccccccccccccccjjjjwwwwwc",
"ccccc&dd99wddcccccwwwwwwwcjjjwwwwwwww  ccccccccccccjjjjjdwwwwwcc",
"ccccccudd1wwdddwwwwwwwwwwdwwwwwwwww77 ccccccccccccjjjjjwwwwwwwcc",
"cccccccuddwwwwwwwwwwwwwwwwwwwwwwww77cccccccccccccjjjjwwwwwwww5cc",
"ccccccccdjjjjdljwwwwwwwwwww91wwww77ccccccccccccjjjjwwwwwwwww% cc",
"cccccccc7ljjjjjjdwwwwwwwwwww1wwww% ccccccccccwdjddwwwwwwwww%%ccc",
"ccccccccdjjjjjjawwwwwwwwwwww11www%ccccccccccjjjddwwwwwwwwww% ccc",
"cccccccujjjjjjay8wwwwwwwwwwwwwwww6ccccccccjjjdwwwwwwwwwww%%%cccc",
"ccccccuzjjjjdww8wwwwwwwwwwwwwwwww6ccccccjjjdwwwwwwwwww%%%%cccccc",
"cccccuddddwwwwwwwwwwwwwwwwwwwwwww66ccc66dwwwwwwwwwww%%%ccccccccc",
"cccc7dw   wwwwwwwwwww   wwwwwwwww666cc666wwwwwwww%%%%ccccccccccc",
"ccccww    wwwwwwwwww     wwwwwwwww666cc666wwwwww%%cccccccccccccc",
"ccccww  xewwwwwwwwww  x  ewwwwwwww6666cc666wwwww%ccccccccccccccc",
"ccccww   ewwwwwwwwwe     ewwwwwwwww666ccc666wwww ccccccccccccccc",
"ccccww .eewwwwwwwwwwe   eewwwwwww9ww666ccc666wwwwccccccccccccccc",
"ccc22weee6wwwwwwwwwweeeeewwwwwww119w666cccc6666wwwcccccccccccccc",
"ccc222ewwwww    wwwwweeeww222www19www666ccccc666wwwccccccccccccc",
"ccc22wwwwwwww  wwwwwwwwww22222wwwwwww666 ccccc66wwwwwccccccccccc",
"ccc02wwwwwwwwwwwwwwwwwwwww222wwwwwwww66::ccccc66wwww%ccccccccccc",
"ccc36www  www   wwww wwwwww2wwwwwwwww6:::ccccc66www%%ccccccccccc",
"cccc3wwwww   www    wwwwwwwwwwwwwwwww6:::cccc666ww%%cccccccccccc",
"cccc46wwwwwwwwwwqwwwwwwwwwwwwwwwwwwww<::;6c6666ww%%ccccccccccccc",
"ccccc@$6wwwwwwwqqq1qwwwwwwwwwwwwwwwww<:;,6$6666ww%cccccccccccccc",
"cccccc4@66wwwwwwwqqwwwwwwwwwwwwwwwww<<;,66$6666w%%cccccccccccccc",
"ccccccc#44666wwwwwwwwdjjwwwwwwwwwww<>>,66: 6666%%<cccccccccccccc",
"cccccccsdwwwwwwwwwwwwrzwwwwwwwwwwww<>6666:cc666<<<<ccccccccccccc",
"ccccccsjdwwwwwwwwwww+zzwwww%wwwwwwwww666:::cc6::<<<<cccccccccccc",
"cccccsjjwwwwwwwwwwww-zwwww%%wwwwwwwww66::::ccc::<<<<<ccccccccccc",
"cccchjdwwwwwwwwwwww-zzwww%%wwwwwwwwww6:::::ccc::<<<<<<cccccccccc",
"ccchjjwwww+wwwwwww+fzwwww%wwwwwwwwwww::::;,cc:::<<<<oooccccccccc",
"ccciw11wi++wwwwwww*zdwww%wwwww%wwwww6:::;,6c::::<<oooccccccccccc",
"ccciw1wi++wwwwwwww%wwww%%www%tzwwwww::;,,66:::::oooccccccccccccc",
"ccciwwic+wwwwwwwwww%%%%wwww%zzjwwww<;;,6666::::oXccccccccccccccc",
"cccciiccdwwwwwwwwwwwwwwwww%lljwwwww>;666666::: ccccccccccccccccc",
"ccccccccjwwwwwwwwwwwwwwww%gldwwwwww66666666::::ccccccccccccccccc",
"ccccccccddwwwwwwwwwwwwwww%zjwwwwwww66666666:::::<ccccccccccccccc",
"cccccccccddwwwwwwwwwwwwww%jwwwwwww6666666OXXXooo:ccccccccccccccc",
"ccccccccccdwwwwwwwwwwwwww%jwwwwwww6666666O ccccccccccccccccccccc",
"cccccccccc%7wwwwwwwwwwwww%jwwwwww6666666O+cccccccccccccccccccccc",
"ccccccccccc%%pwwwwwwwwwww%jwwwww6666666++ccccccccccccccccccccccc",
"cccccccccczz%%%wwwwwwwwww%dwwww6666666++cccccccccccccccccccccccc",
"ccccccccczzzjdwwwwwwwwwww7wwww666666+++ccccccccccccccccccccccccc",
"ccccccczzzwwwwwwwwwwww77777w6666666++ccccccccccccccccccccccccccc",
"cccccckzwwwwww777777777cccc6666666++cccccccccccccccccccccccccccc",
"cccccc6wwwww777ccccccccccc666666++cccccccccccccccccccccccccccccc",
"ccccccc7w7777cccccccccccc666666O=ccccccccccccccccccccccccccccccc",
"cccccccc%+cccccccccccccc666666OOcccccccccccccccccccccccccccccccc",
"cccccccccccccccccccccccc66666Occcccccccccccccccccccccccccccccccc",
"cccccccccccccccccccccccccOOOOccccccccccccccccccccccccccccccccccc",
"cccccccccccccccccccccccccccccccccccccccccccccccccccccccccccccccc",
"cccccccccccccccccccccccccccccccccccccccccccccccccccccccccccccccc",
"cccccccccccccccccccccccccccccccccccccccccccccccccccccccccccccccc",
"cccccccccccccccccccccccccccccccccccccccccccccccccccccccccccccccc"
};
