/* XPM */
static char *result[] = {
/* columns rows colors chars-per-pixel */
"64 64 17 1 ",
"  c black",
". c #373737",
"X c gray36",
"o c #800000",
"O c #D50000",
"+ c #E14D4D",
"@ c #E66666",
"# c gray60",
"$ c #EA8282",
"% c #F0A7A7",
"& c gray88",
"* c #ECECEC",
"= c #FBFBFB",
"- c gray99",
"; c #FDFDFD",
": c white",
"> c None",
/* pixels */
">>>>>>>>>>>>>>>>>>>>>>>>>>>>>>>>>>>>>>>>>>>>>>>>>>>>>>>>>>>>>>>>",
">>>>>>>>>>>>>>>>>>>>>>>>>>>>>>>>>>>>>>>>>>>>>>>>>>>>>>>>>>>>>>>>",
">>>>>>>>>>>>>>>>>>>>                       >>>>>>>>>>>>>>>>>>>>>",
">>>>>>>>>>>>>>>>>>>>                       >>>>>>>>>>>>>>>>>>>>>",
">>>>>>>>>>>>>>>>>>>>                       >>>>>>>>>>>>>>>>>>>>>",
">>>>>>>>>>>>>>      %%%$$$$$$$$$$++++++++++      >>>>>>>>>>>>>>>",
">>>>>>>>>>>>>>      %%%$$$$$$$$$$++++++++++      >>>>>>>>>>>>>>>",
">>>>>>>>>>>>>>      %%%$$$$$$$$$$++++++++++      >>>>>>>>>>>>>>>",
">>>>>>>>>>>   %%%$$$$$$$$$$+++++++++OOOOOOOOOOOOO   >>>>>>>>>>>>",
">>>>>>>>>>>   %%%$$$$$$$$$$+++++++++OOOOOOOOOOOOO   >>>>>>>>>>>>",
">>>>>>>>>>>   %%%$$$$$$$$$$+++++++++OOOOOOOOOOOOO   >>>>>>>>>>>>",
">>>>>>>>>>>   %%%$$$$$$$$$$+++++++++OOOOOOOOOOOOO   >>>>>>>>>>>>",
">>>>>>>    %%%$$$$$$++++++++++OOOOOOOOOOOOOOOOOOOOOO    >>>>>>>>",
">>>>>>>    %%%$$$$$$++++++++++OOOOOOOOOOOOOOOOOOOOOO    >>>>>>>>",
">>>>>>>    %%%$$$$$$++++++++++OOOOOOOOOOO@OOOOOOOOOO    >>>>>>>>",
">>>>   %%%%$$$$$$++++++OOOOOOOOOOOOOOOOOO@@OOOOOOOOOOOOO   >>>>>",
">>>>   %%%%$$$$$$++++++OOOOOOOOOOOOOOOOOOO@@OOOOOOOOOOOO   >>>>>",
">>>>   %%%%$$$$$$++++++OOOOOOOOOOOOOOOOOOOO@@OOOOOOOOOOO   >>>>>",
">>>>   $$$$$$$++++++OOOOOOOOOOOOOOOOOOOOOOOO@OOOOOOOOOOO   >>>>>",
">>>>   $$$$$$$++++++OOOOOOOOOOOOOOOOOOOOOOOO@@OOOOOOOOOO   >>>>>",
">>>>   $$$$$$$++++++OOOOOOOOOOOOOOOOOOOOOOOOO@OOOOOOOOOO   >>>>>",
">   %%%$$$$++++++OOOOOOOOOO         OOOOOOOOO@@OOOOOOOOOOOO   >>",
">   %%%$$$$++++++OOOOOOOOOO         OOOOOOOOOO@OOOOOOOOOOOO   >>",
">   %%%$$$$++++++OOOOOOOOOO         OOOOOOOOOO@OOOOOOOOOOOO   >>",
">   %%%$$$$+++OOOOOOOOO    &&&&&&&&&    OOOOOO@@OOOOOOOOooo   >>",
">   %%%$$$$+++OOOOOOOOO    &&&&&&&&&    OOOOOOO@OOOOOOOOooo   >>",
">   %%%$$$$+++OOOOOOOOO    &&&&&&&&&    OOOOOOOOOOOOOOOOooo   >>",
">   %%%$$$$+++OOOOOOOOO    &&&&&&&&&    OOOOOOOOOOOOOOOOooo   >>",
">   %%%$$$$+++OOOOOO   &&&&:::::::::&&&&   OOOOOOOOOooooooo   >>",
">   %%%$$$$+++OOOOOO   &&&&:::::::::&&&&   OOOOOOOOOooooooo   >>",
">   %%%$$$$+++OOOOOO   &&&&:::::::::&&&&   OOOOOOOOOooooooo   >>",
">                      &&&&:::::::::&&&&                      >>",
">                      &&&&:::::::::&&&&                      >>",
">                      &&&&:::::::::&&&&                      >>",
">   ;;;----*********   &&&&:::::::::&&&&   ******#######XXX   >>",
">   ;;;----*********   &&&&:::::::::&&&&   ******#######XXX   >>",
">   ;;;----*********   &&&&:::::::::&&&&   ******#######XXX   >>",
">   ===****************    &&&&&&&&&    *********###XXXXXXX   >>",
">   ===****************    &&&&&&&&&    *********###XXXXXXX   >>",
">   ===****************    &&&&&&&&&    *********###XXXXXXX   >>",
">   ===****************    &&&&&&&&&    *********###XXXXXXX   >>",
">   ***********************         **********######XXXX...   >>",
">   ***********************         **********######XXXX...   >>",
">   ***********************         **********######XXXX...   >>",
">>>>   ************************************######XXXXXXX   >>>>>",
">>>>   ************************************######XXXXXXX   >>>>>",
">>>>   ************************************######XXXXXXX   >>>>>",
">>>>   *********************************######XXXXXX....   >>>>>",
">>>>   *********************************######XXXXXX....   >>>>>",
">>>>   *********************************######XXXXXX....   >>>>>",
">>>>>>>    **********************##########XXXXXX...    >>>>>>>>",
">>>>>>>    **********************##########XXXXXX...    >>>>>>>>",
">>>>>>>    **********************##########XXXXXX...    >>>>>>>>",
">>>>>>>>>>>   *************#########XXXXXXXXXX...   >>>>>>>>>>>>",
">>>>>>>>>>>   *************#########XXXXXXXXXX...   >>>>>>>>>>>>",
">>>>>>>>>>>   *************#########XXXXXXXXXX...   >>>>>>>>>>>>",
">>>>>>>>>>>   *************#########XXXXXXXXXX...   >>>>>>>>>>>>",
">>>>>>>>>>>>>>      ##########XXXXXXXXXX...      >>>>>>>>>>>>>>>",
">>>>>>>>>>>>>>      ##########XXXXXXXXXX...      >>>>>>>>>>>>>>>",
">>>>>>>>>>>>>>      ##########XXXXXXXXXX...      >>>>>>>>>>>>>>>",
">>>>>>>>>>>>>>>>>>>>                       >>>>>>>>>>>>>>>>>>>>>",
">>>>>>>>>>>>>>>>>>>>                       >>>>>>>>>>>>>>>>>>>>>",
">>>>>>>>>>>>>>>>>>>>                       >>>>>>>>>>>>>>>>>>>>>",
">>>>>>>>>>>>>>>>>>>>>>>>>>>>>>>>>>>>>>>>>>>>>>>>>>>>>>>>>>>>>>>>"
};
